<svg xmlns="http://www.w3.org/2000/svg" width="16" height="16" viewBox="0 0 16 16" fill="none">
  <path d="M13.3327 9.16732C13.3327 9.03471 13.28 8.90753 13.1862 8.81376C13.0925 8.72 12.9653 8.66732 12.8327 8.66732H10.8327C10.7001 8.66732 10.5729 8.72 10.4791 8.81376C10.3854 8.90753 10.3327 9.03471 10.3327 9.16732V13.6673H9.33268V2.83398C9.33268 2.34865 9.33135 2.03398 9.30068 1.80332C9.27135 1.58665 9.22402 1.51865 9.18602 1.48065C9.14802 1.44265 9.08002 1.39532 8.86335 1.36598C8.63201 1.33532 8.31802 1.33398 7.83268 1.33398C7.34735 1.33398 7.03268 1.33532 6.80202 1.36598C6.58535 1.39532 6.51735 1.44265 6.47935 1.48065C6.44135 1.51865 6.39402 1.58665 6.36468 1.80332C6.33402 2.03465 6.33268 2.34865 6.33268 2.83398V13.6673H5.33268V5.83398C5.33268 5.70138 5.28 5.5742 5.18624 5.48043C5.09247 5.38666 4.96529 5.33398 4.83268 5.33398H2.83268C2.70007 5.33398 2.5729 5.38666 2.47913 5.48043C2.38536 5.5742 2.33268 5.70138 2.33268 5.83398V13.6673H1.16602C1.03341 13.6673 0.90623 13.72 0.812462 13.8138C0.718694 13.9075 0.666016 14.0347 0.666016 14.1673C0.666016 14.2999 0.718694 14.4271 0.812462 14.5209C0.90623 14.6146 1.03341 14.6673 1.16602 14.6673H14.4993C14.632 14.6673 14.7591 14.6146 14.8529 14.5209C14.9467 14.4271 14.9993 14.2999 14.9993 14.1673C14.9993 14.0347 14.9467 13.9075 14.8529 13.8138C14.7591 13.72 14.632 13.6673 14.4993 13.6673H13.3327V9.16732Z" fill="#004D83"/>
</svg>