<svg xmlns="http://www.w3.org/2000/svg" width="16" height="16" viewBox="0 0 16 16" fill="none">
  <path d="M13.5932 5.70688L12.7665 6.94688C13.1619 7.73559 13.3555 8.6101 13.3299 9.49202C13.3044 10.374 13.0604 11.2358 12.6198 12.0002H3.37983C2.80727 11.0069 2.57002 9.85562 2.70325 8.71692C2.83648 7.57822 3.3331 6.51276 4.11948 5.67849C4.90586 4.84423 5.94014 4.28557 7.06899 4.08534C8.19783 3.88511 9.36116 4.05397 10.3865 4.56688L11.6265 3.74021C10.3129 2.88882 8.74151 2.52685 7.18778 2.71773C5.63405 2.9086 4.19704 3.64014 3.12853 4.78417C2.06003 5.9282 1.42818 7.41175 1.3437 8.97488C1.25923 10.538 1.72751 12.081 2.66649 13.3335H13.3332C14.1509 12.241 14.6136 10.9239 14.6589 9.56004C14.7042 8.19616 14.3299 6.85123 13.5865 5.70688H13.5932Z" fill="#626D80"/>
  <path d="M7.05999 10.2733C7.18383 10.3972 7.33088 10.4956 7.49274 10.5627C7.6546 10.6298 7.82811 10.6643 8.00333 10.6643C8.17855 10.6643 8.35205 10.6298 8.51391 10.5627C8.67578 10.4956 8.82283 10.3972 8.94666 10.2733L12.72 4.61328L7.05999 8.38661C6.93603 8.51045 6.83768 8.6575 6.77058 8.81936C6.70348 8.98122 6.66895 9.15473 6.66895 9.32995C6.66895 9.50517 6.70348 9.67867 6.77058 9.84053C6.83768 10.0024 6.93603 10.1494 7.05999 10.2733Z" fill="#626D80"/>
</svg>