<svg width="100%" viewBox="0 0 16 14" fill="none" xmlns="http://www.w3.org/2000/svg">
<path d="M2.00033 12.9485C1.63366 12.9485 1.31966 12.8154 1.05833 12.549C0.796993 12.2827 0.666549 11.9622 0.666993 11.5874V10.2263C0.666993 10.0335 0.730993 9.87196 0.858993 9.74175C0.986993 9.61153 1.14522 9.5462 1.33366 9.54575C1.52255 9.54575 1.68099 9.61108 1.80899 9.74175C1.93699 9.87241 2.00077 10.0339 2.00033 10.2263V11.5874H14.0003V10.2263C14.0003 10.0335 14.0643 9.87173 14.1923 9.74107C14.3203 9.6104 14.4785 9.54529 14.667 9.54575C14.8559 9.54575 15.0143 9.61108 15.1423 9.74175C15.2703 9.87241 15.3341 10.0339 15.3337 10.2263V11.5874C15.3337 11.9617 15.203 12.2823 14.9417 12.549C14.6803 12.8158 14.3665 12.9488 14.0003 12.9478L2.00033 12.9485ZM4.90033 10.3624C4.35588 10.3624 3.9281 10.2179 3.61699 9.9289C3.30588 9.63989 3.15033 9.24562 3.15033 8.74609C3.15033 8.26971 3.33099 7.88133 3.69233 7.58098C4.05366 7.28063 4.51744 7.13023 5.08366 7.12977C5.33922 7.12977 5.57544 7.14974 5.79233 7.18966C6.00922 7.22959 6.19522 7.2947 6.35033 7.38498V7.14679C6.35033 6.84054 6.24744 6.59667 6.04166 6.41519C5.83588 6.23371 5.55544 6.14297 5.20033 6.14297C5.03366 6.14297 4.87544 6.1686 4.72566 6.21987C4.57588 6.27114 4.43966 6.34192 4.31699 6.4322C4.21699 6.5116 4.10877 6.55697 3.99233 6.56832C3.87588 6.57966 3.76744 6.54563 3.66699 6.46623C3.56699 6.38683 3.50588 6.28747 3.48366 6.16815C3.46144 6.04883 3.49477 5.94402 3.58366 5.85373C3.78366 5.66091 4.01988 5.51345 4.29233 5.41137C4.56477 5.30929 4.87299 5.25825 5.21699 5.25825C5.90588 5.25825 6.43366 5.42566 6.80033 5.7605C7.16699 6.09533 7.35033 6.58011 7.35033 7.21484V9.71589C7.35033 9.852 7.30299 9.96837 7.20833 10.065C7.11366 10.1616 6.99988 10.2097 6.86699 10.2093C6.72255 10.2093 6.60322 10.161 6.50899 10.0643C6.41477 9.96769 6.36744 9.84587 6.36699 9.69887V9.63082H6.31699C6.17255 9.85767 5.97811 10.0364 5.73366 10.1671C5.48922 10.2978 5.21144 10.3629 4.90033 10.3624ZM5.26699 7.92943C4.91144 7.92943 4.63922 8.00043 4.45033 8.14244C4.26144 8.28445 4.16699 8.48567 4.16699 8.74609C4.16699 8.97295 4.25033 9.15738 4.41699 9.29939C4.58366 9.44139 4.80033 9.51217 5.06699 9.51172C5.42255 9.51172 5.72544 9.38423 5.97566 9.12925C6.22588 8.87427 6.35077 8.56507 6.35033 8.20165C6.19477 8.11091 6.01699 8.04285 5.81699 7.99748C5.61699 7.95211 5.43366 7.92943 5.26699 7.92943ZM10.8837 10.3624C10.4281 10.3624 10.081 10.2603 9.84233 10.0562C9.60366 9.852 9.45077 9.6932 9.38366 9.57977H9.33366V9.80095C9.33366 9.93707 9.28655 10.0534 9.19233 10.1501C9.0981 10.2467 8.9841 10.2948 8.85033 10.2944C8.71699 10.2944 8.60033 10.2433 8.50033 10.1412C8.40033 10.0391 8.35033 9.92005 8.35033 9.78394V3.91415C8.35033 3.7667 8.40033 3.64193 8.50033 3.53984C8.60033 3.43776 8.72255 3.38672 8.86699 3.38672C9.01144 3.38672 9.13366 3.43776 9.23366 3.53984C9.33366 3.64193 9.38366 3.7667 9.38366 3.91415V5.30929L9.33366 5.98984H9.38366C9.41699 5.93313 9.55033 5.7884 9.78366 5.55565C10.017 5.3229 10.3837 5.20675 10.8837 5.20721C11.5948 5.20721 12.1559 5.46808 12.567 5.98984C12.9781 6.5116 13.1837 7.11276 13.1837 7.79332C13.1837 8.47387 12.981 9.07231 12.5757 9.58862C12.1703 10.1049 11.6063 10.3629 10.8837 10.3624ZM10.7337 6.15998C10.2892 6.15998 9.94477 6.3274 9.70033 6.66223C9.45588 6.99707 9.33366 7.36842 9.33366 7.7763C9.33366 8.19598 9.45588 8.57028 9.70033 8.89922C9.94477 9.22815 10.2892 9.39262 10.7337 9.39262C11.1781 9.39262 11.5254 9.22815 11.7757 8.89922C12.0259 8.57028 12.1508 8.19598 12.1503 7.7763C12.1503 7.35663 12.0252 6.98232 11.775 6.65339C11.5248 6.32445 11.1777 6.15998 10.7337 6.15998Z" fill="currentColor"/>
</svg>
