<svg width="100%" height="100%" viewBox="0 0 14 16" fill="none" xmlns="http://www.w3.org/2000/svg">
  <g clip-path="url(#clip0_419_2769)">
  <path d="M4.25798 1.24023L9.64865 3.59823L13.6673 1.5889V6.66757H12.334V3.74623L10.334 4.74623V6.66757H9.00065V4.77023L5.00065 3.0209V10.2562L6.56398 11.0376L5.96732 12.2309L4.36332 11.4282L0.333984 13.8449V3.98757L4.25798 1.2409V1.24023ZM3.66732 10.2902V3.2809L1.66732 4.6809V11.4896L3.66732 10.2896V10.2902ZM10.5007 9.0009C10.8631 9.00091 11.2175 9.10837 11.5189 9.3097C11.8203 9.51102 12.0553 9.79718 12.1941 10.132C12.3329 10.4668 12.3694 10.8353 12.2989 11.1908C12.2284 11.5464 12.0541 11.8731 11.798 12.1296L11.7927 12.1349C11.579 12.3474 11.3163 12.5039 11.0277 12.5906C10.7392 12.6774 10.4337 12.6916 10.1383 12.6322C9.84292 12.5728 9.56674 12.4415 9.33419 12.2499C9.10164 12.0583 8.9199 11.8123 8.80504 11.5338C8.69018 11.2552 8.64574 10.9527 8.67567 10.6528C8.70559 10.353 8.80894 10.0652 8.97659 9.81484C9.14423 9.56448 9.371 9.3593 9.63683 9.21745C9.90265 9.0756 10.1993 9.00145 10.5007 9.00157V9.0009ZM13.162 12.5509C13.5858 11.8939 13.7515 11.1034 13.6274 10.3315C13.5032 9.55964 13.098 8.86097 12.4895 8.37C11.8811 7.87904 11.1126 7.6305 10.3319 7.67222C9.55123 7.71394 8.81357 8.04298 8.26095 8.59599C7.70833 9.14901 7.37981 9.8869 7.33864 10.6676C7.29747 11.4483 7.54655 12.2167 8.03795 12.8247C8.52934 13.4328 9.2283 13.8376 10.0003 13.9612C10.7722 14.0848 11.5626 13.9185 12.2193 13.4942L13.3327 14.6102L14.2766 13.6689L13.162 12.5509Z" fill="currentColor"/>
  </g>
  <defs>
  <clipPath id="clip0_419_2769">
  <rect width="14" height="16" fill="white"/>
  </clipPath>
  </defs>
</svg>
