<svg width="100%" viewBox="0 0 755 239" fill="none" xmlns="http://www.w3.org/2000/svg">
<path d="M118.987 238.995C99.7432 238.992 80.7875 234.322 63.7447 225.387C46.7018 216.451 32.08 203.516 21.1329 187.689C10.1857 171.863 3.23969 153.618 0.890285 134.519C-1.45912 115.42 0.858164 96.0352 7.64348 78.0278C14.4288 60.0204 25.4797 43.927 39.849 31.1273C54.2182 18.3275 71.4771 9.20326 90.146 4.53665C108.815 -0.129958 128.337 -0.199699 147.039 4.3334C165.741 8.86649 183.064 17.8672 197.525 30.5639C198.023 31.0391 198.317 31.6887 198.346 32.3764C198.375 33.064 198.137 33.7362 197.681 34.2516C197.224 34.7671 196.586 35.0856 195.9 35.1404C195.214 35.1952 194.533 34.982 194.001 34.5455C178.135 20.6462 158.716 11.4343 137.914 7.93977C117.113 4.44527 95.7491 6.80595 76.2123 14.7578C56.6755 22.7097 39.7358 35.9394 27.2874 52.9674C14.8389 69.9954 7.37242 90.1505 5.72284 111.179C4.07327 132.207 8.30563 153.28 17.9467 172.041C27.5877 190.802 42.2573 206.511 60.3152 217.412C78.373 228.313 99.1072 233.976 120.199 233.768C141.291 233.56 161.91 227.489 179.749 216.233C211.619 196.062 229.588 156.599 246.959 118.457C264.577 79.9278 282.617 40.1125 315.244 19.4826C329.102 10.7327 344.617 4.93764 360.818 2.4603C377.019 -0.0170429 393.556 0.87664 409.396 5.08541C425.235 9.29417 440.036 16.7274 452.87 26.9198C465.704 37.1121 476.296 49.8441 483.983 64.3188C484.313 64.9379 484.383 65.6625 484.178 66.3332C483.973 67.0039 483.51 67.5658 482.891 67.8951C482.272 68.2246 481.547 68.2945 480.877 68.0897C480.206 67.8848 479.644 67.422 479.315 66.8029C474.002 56.818 467.24 47.6751 459.248 39.6721C440.986 21.4296 417.065 9.93619 391.411 7.07755C365.757 4.21891 339.893 10.1648 318.063 23.9398C286.774 43.7241 268.981 82.8347 251.769 120.642C234.063 159.505 215.776 199.691 182.585 220.708C163.547 232.707 141.491 239.049 118.987 238.995Z" fill="url(#paint0_linear_419_2832)"/>
<path d="M200.747 26.495C201.907 27.5537 202.727 28.9325 203.104 30.4571C203.481 31.9818 203.397 33.5839 202.864 35.0611C202.331 36.5383 201.372 37.8244 200.108 38.7568C198.844 39.6893 197.333 40.2263 195.764 40.3001C194.195 40.3738 192.64 39.981 191.294 39.1713C189.948 38.3615 188.873 37.1711 188.203 35.7505C187.534 34.3298 187.3 32.7426 187.533 31.1893C187.765 29.6361 188.452 28.1864 189.507 27.0235C190.21 26.2495 191.058 25.6217 192.004 25.1761C192.949 24.7305 193.973 24.4758 195.018 24.4267C196.062 24.3776 197.105 24.5351 198.088 24.89C199.072 25.2449 199.975 25.7903 200.747 26.495Z" fill="url(#paint1_linear_419_2832)"/>
<path d="M474.275 68.7385C474.983 70.1412 476.09 71.3028 477.458 72.0762C478.825 72.8497 480.391 73.2003 481.958 73.0839C483.525 72.9674 485.022 72.3891 486.26 71.422C487.498 70.4549 488.422 69.1424 488.914 67.6504C489.407 66.1585 489.446 64.554 489.027 63.0399C488.607 61.5258 487.749 60.17 486.559 59.1438C485.369 58.1176 483.902 57.4672 482.343 57.2747C480.783 57.0822 479.202 57.3563 477.799 58.0624C476.866 58.5316 476.035 59.1801 475.353 59.9707C474.671 60.7613 474.151 61.6786 473.824 62.6701C473.497 63.6617 473.368 64.7079 473.446 65.7492C473.523 66.7904 473.805 67.8062 474.275 68.7385Z" fill="url(#paint2_linear_419_2832)"/>
<path d="M635.843 238.995C606.952 239.01 579.045 228.501 557.34 209.433C557.076 209.206 556.86 208.928 556.705 208.616C556.549 208.305 556.457 207.965 556.434 207.617C556.411 207.27 556.458 206.921 556.571 206.592C556.684 206.262 556.862 205.958 557.094 205.698C557.558 205.173 558.211 204.853 558.91 204.807C559.61 204.761 560.299 204.992 560.829 205.452C576.687 219.368 596.105 228.598 616.91 232.108C637.715 235.618 659.087 233.27 678.634 225.327C698.18 217.383 715.131 204.157 727.59 187.129C740.048 170.101 747.523 149.942 749.178 128.908C750.833 107.874 746.603 86.7945 736.96 68.0276C727.318 49.2607 712.644 33.5469 694.58 22.6443C676.516 11.7416 655.775 6.08021 634.677 6.29347C613.579 6.50672 592.956 12.5862 575.116 23.8517C543.229 44.0413 525.259 83.4865 507.888 121.628C490.359 160.14 472.231 199.955 439.603 220.603C425.121 229.751 408.835 235.666 391.857 237.944C374.879 240.221 357.61 238.806 341.229 233.797C324.848 228.788 309.741 220.301 296.94 208.918C284.14 197.535 273.947 183.522 267.059 167.839C266.888 167.517 266.785 167.164 266.757 166.801C266.729 166.438 266.776 166.073 266.895 165.729C267.015 165.386 267.204 165.07 267.451 164.803C267.698 164.536 267.998 164.322 268.331 164.176C268.665 164.03 269.025 163.955 269.389 163.954C269.753 163.954 270.113 164.029 270.447 164.174C270.781 164.319 271.081 164.532 271.328 164.799C271.576 165.066 271.766 165.381 271.886 165.724C278.47 180.71 288.211 194.098 300.444 204.974C312.677 215.85 327.113 223.957 342.766 228.743C358.42 233.528 374.921 234.878 391.144 232.701C407.367 230.524 422.929 224.871 436.767 216.128C468.073 196.343 485.867 157.25 503.079 119.444C520.784 80.5797 539.071 40.4121 572.315 19.3945C587.916 9.53356 605.597 3.43634 623.96 1.58478C642.323 -0.266784 660.865 2.17806 678.12 8.7261C695.376 15.2741 710.872 25.7459 723.384 39.3136C735.896 52.8814 745.08 69.1734 750.212 86.9018C755.343 104.63 756.281 123.309 752.951 141.462C749.621 159.616 742.114 176.746 731.024 191.498C719.934 206.251 705.565 218.222 689.052 226.465C672.539 234.709 654.335 238.998 635.879 238.995H635.843Z" fill="url(#paint3_linear_419_2832)"/>
<path d="M262.249 170.13C261.658 168.674 261.511 167.076 261.829 165.537C262.146 163.999 262.912 162.588 264.03 161.485C265.148 160.381 266.569 159.634 268.112 159.338C269.654 159.042 271.251 159.209 272.698 159.82C274.146 160.43 275.38 161.456 276.244 162.768C277.109 164.08 277.565 165.619 277.556 167.19C277.546 168.761 277.071 170.294 276.19 171.595C275.309 172.896 274.063 173.906 272.608 174.499C271.641 174.893 270.606 175.092 269.562 175.086C268.517 175.08 267.485 174.867 266.523 174.462C265.561 174.056 264.688 173.464 263.955 172.721C263.221 171.978 262.642 171.097 262.249 170.13Z" fill="url(#paint4_linear_419_2832)"/>
<path d="M564.81 201.752C563.648 200.694 562.198 200.004 560.644 199.77C559.09 199.536 557.501 199.768 556.079 200.437C554.657 201.106 553.465 202.182 552.654 203.528C551.844 204.875 551.45 206.431 551.524 208.001C551.598 209.571 552.136 211.083 553.07 212.347C554.004 213.612 555.291 214.571 556.77 215.103C558.248 215.635 559.852 215.717 561.377 215.338C562.902 214.959 564.281 214.136 565.338 212.974C566.756 211.415 567.497 209.358 567.398 207.253C567.299 205.149 566.368 203.17 564.81 201.752Z" fill="url(#paint5_linear_419_2832)"/>
<path d="M66.1699 101.723C67.4004 101.723 68.416 101.872 69.2168 102.172C70.0241 102.471 70.623 102.927 71.0137 103.539C71.4108 104.151 71.6094 104.929 71.6094 105.873C71.6094 106.576 71.4792 107.175 71.2188 107.67C70.9583 108.165 70.6165 108.575 70.1934 108.9C69.7702 109.226 69.3177 109.486 68.8359 109.682L72.8887 116H70.2422L66.7949 110.277H64.5V116H62.1562V101.723H66.1699ZM66.0137 103.676H64.5V108.344H66.1211C67.2083 108.344 67.9961 108.142 68.4844 107.738C68.9792 107.335 69.2266 106.739 69.2266 105.951C69.2266 105.124 68.9629 104.538 68.4355 104.193C67.9147 103.848 67.1074 103.676 66.0137 103.676ZM79.002 104.984C79.9655 104.984 80.7923 105.183 81.4824 105.58C82.1725 105.977 82.7031 106.54 83.0742 107.27C83.4453 107.999 83.6309 108.871 83.6309 109.887V111.117H76.4141C76.4401 112.165 76.7201 112.973 77.2539 113.539C77.7943 114.105 78.5495 114.389 79.5195 114.389C80.2096 114.389 80.8281 114.324 81.375 114.193C81.9284 114.057 82.498 113.858 83.084 113.598V115.463C82.5436 115.717 81.9935 115.902 81.4336 116.02C80.8737 116.137 80.2031 116.195 79.4219 116.195C78.3607 116.195 77.4264 115.99 76.6191 115.58C75.8184 115.163 75.1901 114.545 74.7344 113.725C74.2852 112.904 74.0605 111.885 74.0605 110.668C74.0605 109.457 74.2656 108.428 74.6758 107.582C75.0859 106.736 75.6621 106.091 76.4043 105.648C77.1465 105.206 78.0124 104.984 79.002 104.984ZM79.002 106.713C78.2793 106.713 77.6934 106.947 77.2441 107.416C76.8014 107.885 76.541 108.572 76.4629 109.477H81.3848C81.3783 108.936 81.2871 108.458 81.1113 108.041C80.9421 107.624 80.6816 107.299 80.3301 107.064C79.985 106.83 79.5423 106.713 79.002 106.713ZM93.4844 112.914C93.4844 113.624 93.3118 114.223 92.9668 114.711C92.6217 115.199 92.1172 115.57 91.4531 115.824C90.7956 116.072 89.9883 116.195 89.0312 116.195C88.276 116.195 87.625 116.14 87.0781 116.029C86.5378 115.925 86.0267 115.762 85.5449 115.541V113.559C86.0592 113.799 86.6354 114.008 87.2734 114.184C87.918 114.359 88.5267 114.447 89.0996 114.447C89.8548 114.447 90.3984 114.33 90.7305 114.096C91.0625 113.855 91.2285 113.536 91.2285 113.139C91.2285 112.904 91.1602 112.696 91.0234 112.514C90.8932 112.325 90.6458 112.133 90.2812 111.938C89.9232 111.736 89.3958 111.495 88.6992 111.215C88.0156 110.941 87.4395 110.668 86.9707 110.395C86.502 110.121 86.1471 109.792 85.9062 109.408C85.6654 109.018 85.5449 108.52 85.5449 107.914C85.5449 106.957 85.9225 106.231 86.6777 105.736C87.4395 105.235 88.4453 104.984 89.6953 104.984C90.3594 104.984 90.9844 105.053 91.5703 105.189C92.1628 105.32 92.7422 105.512 93.3086 105.766L92.5859 107.494C92.0977 107.279 91.6061 107.104 91.1113 106.967C90.623 106.824 90.125 106.752 89.6172 106.752C89.0247 106.752 88.5723 106.843 88.2598 107.025C87.9538 107.208 87.8008 107.468 87.8008 107.807C87.8008 108.061 87.8757 108.275 88.0254 108.451C88.1751 108.627 88.4323 108.803 88.7969 108.979C89.168 109.154 89.6823 109.372 90.3398 109.633C90.9844 109.88 91.541 110.141 92.0098 110.414C92.485 110.681 92.8496 111.01 93.1035 111.4C93.3574 111.791 93.4844 112.296 93.4844 112.914ZM100.271 104.984C101.235 104.984 102.062 105.183 102.752 105.58C103.442 105.977 103.973 106.54 104.344 107.27C104.715 107.999 104.9 108.871 104.9 109.887V111.117H97.6836C97.7096 112.165 97.9896 112.973 98.5234 113.539C99.0638 114.105 99.819 114.389 100.789 114.389C101.479 114.389 102.098 114.324 102.645 114.193C103.198 114.057 103.768 113.858 104.354 113.598V115.463C103.813 115.717 103.263 115.902 102.703 116.02C102.143 116.137 101.473 116.195 100.691 116.195C99.6302 116.195 98.696 115.99 97.8887 115.58C97.0879 115.163 96.4596 114.545 96.0039 113.725C95.5547 112.904 95.3301 111.885 95.3301 110.668C95.3301 109.457 95.5352 108.428 95.9453 107.582C96.3555 106.736 96.9316 106.091 97.6738 105.648C98.416 105.206 99.2819 104.984 100.271 104.984ZM100.271 106.713C99.5488 106.713 98.9629 106.947 98.5137 107.416C98.071 107.885 97.8105 108.572 97.7324 109.477H102.654C102.648 108.936 102.557 108.458 102.381 108.041C102.212 107.624 101.951 107.299 101.6 107.064C101.255 106.83 100.812 106.713 100.271 106.713ZM111.727 104.984C113.094 104.984 114.126 105.287 114.822 105.893C115.525 106.498 115.877 107.442 115.877 108.725V116H114.246L113.807 114.467H113.729C113.423 114.857 113.107 115.18 112.781 115.434C112.456 115.688 112.078 115.876 111.648 116C111.225 116.13 110.708 116.195 110.096 116.195C109.451 116.195 108.875 116.078 108.367 115.844C107.859 115.603 107.459 115.238 107.166 114.75C106.873 114.262 106.727 113.643 106.727 112.895C106.727 111.781 107.14 110.945 107.967 110.385C108.8 109.825 110.057 109.516 111.736 109.457L113.611 109.389V108.822C113.611 108.074 113.436 107.54 113.084 107.221C112.739 106.902 112.251 106.742 111.619 106.742C111.079 106.742 110.555 106.82 110.047 106.977C109.539 107.133 109.044 107.325 108.562 107.553L107.82 105.932C108.348 105.652 108.947 105.424 109.617 105.248C110.294 105.072 110.997 104.984 111.727 104.984ZM113.602 110.834L112.205 110.883C111.059 110.922 110.255 111.117 109.793 111.469C109.331 111.82 109.1 112.302 109.1 112.914C109.1 113.448 109.259 113.839 109.578 114.086C109.897 114.327 110.317 114.447 110.838 114.447C111.632 114.447 112.29 114.223 112.811 113.773C113.338 113.318 113.602 112.65 113.602 111.771V110.834ZM124.568 104.984C124.751 104.984 124.949 104.994 125.164 105.014C125.379 105.033 125.564 105.059 125.721 105.092L125.506 107.24C125.369 107.201 125.2 107.172 124.998 107.152C124.803 107.133 124.627 107.123 124.471 107.123C124.061 107.123 123.67 107.191 123.299 107.328C122.928 107.458 122.599 107.66 122.312 107.934C122.026 108.201 121.801 108.536 121.639 108.939C121.476 109.343 121.395 109.812 121.395 110.346V116H119.09V105.189H120.887L121.199 107.094H121.307C121.521 106.71 121.788 106.358 122.107 106.039C122.426 105.72 122.791 105.466 123.201 105.277C123.618 105.082 124.074 104.984 124.568 104.984ZM132.078 116.195C131.056 116.195 130.171 115.997 129.422 115.6C128.673 115.202 128.097 114.594 127.693 113.773C127.29 112.953 127.088 111.911 127.088 110.648C127.088 109.333 127.309 108.259 127.752 107.426C128.195 106.592 128.807 105.977 129.588 105.58C130.376 105.183 131.277 104.984 132.293 104.984C132.938 104.984 133.52 105.049 134.041 105.18C134.568 105.303 135.014 105.456 135.379 105.639L134.695 107.475C134.298 107.312 133.891 107.175 133.475 107.064C133.058 106.954 132.658 106.898 132.273 106.898C131.642 106.898 131.115 107.038 130.691 107.318C130.275 107.598 129.962 108.015 129.754 108.568C129.552 109.122 129.451 109.809 129.451 110.629C129.451 111.423 129.555 112.094 129.764 112.641C129.972 113.181 130.281 113.591 130.691 113.871C131.102 114.145 131.606 114.281 132.205 114.281C132.798 114.281 133.328 114.21 133.797 114.066C134.266 113.923 134.708 113.738 135.125 113.51V115.502C134.715 115.736 134.275 115.909 133.807 116.02C133.338 116.137 132.762 116.195 132.078 116.195ZM139.959 100.805V104.623C139.959 105.02 139.946 105.408 139.92 105.785C139.9 106.163 139.878 106.456 139.852 106.664H139.979C140.206 106.286 140.486 105.977 140.818 105.736C141.15 105.489 141.521 105.303 141.932 105.18C142.348 105.056 142.791 104.994 143.26 104.994C144.087 104.994 144.79 105.134 145.369 105.414C145.949 105.688 146.391 106.114 146.697 106.693C147.01 107.273 147.166 108.025 147.166 108.949V116H144.871V109.379C144.871 108.539 144.699 107.911 144.354 107.494C144.008 107.071 143.475 106.859 142.752 106.859C142.055 106.859 141.502 107.006 141.092 107.299C140.688 107.585 140.398 108.012 140.223 108.578C140.047 109.138 139.959 109.822 139.959 110.629V116H137.664V100.805H139.959ZM160.076 101.508C160.812 101.508 161.456 101.628 162.01 101.869C162.57 102.11 163.006 102.462 163.318 102.924C163.631 103.38 163.787 103.936 163.787 104.594C163.787 105.473 163.514 106.215 162.967 106.82C162.42 107.426 161.73 107.966 160.896 108.441L164.266 111.723C164.585 111.286 164.848 110.808 165.057 110.287C165.265 109.76 165.444 109.206 165.594 108.627H167.967C167.765 109.434 167.485 110.232 167.127 111.02C166.769 111.801 166.316 112.517 165.77 113.168L168.67 116H165.73L164.285 114.584C163.882 114.91 163.449 115.193 162.986 115.434C162.531 115.674 162.033 115.863 161.492 116C160.952 116.13 160.356 116.195 159.705 116.195C158.709 116.195 157.85 116.036 157.127 115.717C156.404 115.398 155.848 114.942 155.457 114.35C155.073 113.751 154.881 113.041 154.881 112.221C154.881 111.537 154.995 110.951 155.223 110.463C155.457 109.968 155.789 109.535 156.219 109.164C156.648 108.786 157.163 108.428 157.762 108.09C157.436 107.719 157.153 107.357 156.912 107.006C156.671 106.654 156.486 106.293 156.355 105.922C156.232 105.544 156.17 105.141 156.17 104.711C156.17 104.047 156.333 103.477 156.658 103.002C156.984 102.52 157.439 102.152 158.025 101.898C158.611 101.638 159.295 101.508 160.076 101.508ZM159.119 109.486C158.742 109.727 158.416 109.971 158.143 110.219C157.869 110.46 157.658 110.727 157.508 111.02C157.365 111.312 157.293 111.654 157.293 112.045C157.293 112.715 157.527 113.246 157.996 113.637C158.471 114.027 159.083 114.223 159.832 114.223C160.49 114.223 161.066 114.125 161.561 113.93C162.062 113.728 162.498 113.477 162.869 113.178L159.119 109.486ZM160.037 103.324C159.575 103.324 159.174 103.445 158.836 103.686C158.504 103.926 158.338 104.301 158.338 104.809C158.338 105.219 158.445 105.606 158.66 105.971C158.882 106.329 159.188 106.716 159.578 107.133C160.262 106.755 160.77 106.384 161.102 106.02C161.44 105.655 161.609 105.232 161.609 104.75C161.609 104.294 161.456 103.943 161.15 103.695C160.844 103.448 160.473 103.324 160.037 103.324ZM60.7305 138.113C60.7305 138.96 60.5221 139.689 60.1055 140.301C59.6953 140.913 59.1029 141.382 58.3281 141.707C57.5599 142.033 56.6419 142.195 55.5742 142.195C55.0534 142.195 54.5553 142.166 54.0801 142.107C53.6048 142.049 53.1556 141.964 52.7324 141.854C52.3158 141.736 51.9349 141.596 51.5898 141.434V139.227C52.1693 139.48 52.8171 139.712 53.5332 139.92C54.2493 140.122 54.9785 140.223 55.7207 140.223C56.3262 140.223 56.8275 140.145 57.2246 139.988C57.6283 139.826 57.9277 139.598 58.123 139.305C58.3184 139.005 58.416 138.657 58.416 138.26C58.416 137.837 58.3021 137.479 58.0742 137.186C57.8464 136.893 57.5013 136.626 57.0391 136.385C56.5833 136.137 56.0104 135.874 55.3203 135.594C54.8516 135.405 54.4023 135.19 53.9727 134.949C53.5495 134.708 53.1719 134.425 52.8398 134.1C52.5078 133.774 52.2441 133.39 52.0488 132.947C51.86 132.498 51.7656 131.971 51.7656 131.365C51.7656 130.558 51.9577 129.868 52.3418 129.295C52.7324 128.722 53.2793 128.283 53.9824 127.977C54.6921 127.671 55.5189 127.518 56.4629 127.518C57.2116 127.518 57.9147 127.596 58.5723 127.752C59.2363 127.908 59.8874 128.13 60.5254 128.416L59.7832 130.301C59.1973 130.06 58.6276 129.868 58.0742 129.725C57.5273 129.581 56.9674 129.51 56.3945 129.51C55.8997 129.51 55.4798 129.585 55.1348 129.734C54.7897 129.884 54.526 130.096 54.3438 130.369C54.168 130.636 54.0801 130.955 54.0801 131.326C54.0801 131.743 54.181 132.094 54.3828 132.381C54.5911 132.661 54.9102 132.918 55.3398 133.152C55.776 133.387 56.3359 133.647 57.0195 133.934C57.8073 134.259 58.4746 134.601 59.0215 134.959C59.5749 135.317 59.998 135.747 60.291 136.248C60.584 136.743 60.7305 137.365 60.7305 138.113ZM67.2734 140.34C67.5729 140.34 67.8691 140.314 68.1621 140.262C68.4551 140.203 68.722 140.135 68.9629 140.057V141.795C68.709 141.906 68.3802 142 67.9766 142.078C67.5729 142.156 67.153 142.195 66.7168 142.195C66.1048 142.195 65.5547 142.094 65.0664 141.893C64.5781 141.684 64.1908 141.329 63.9043 140.828C63.6178 140.327 63.4746 139.633 63.4746 138.748V132.938H62V131.912L63.582 131.102L64.334 128.787H65.7793V131.189H68.875V132.938H65.7793V138.719C65.7793 139.266 65.916 139.673 66.1895 139.939C66.4629 140.206 66.8242 140.34 67.2734 140.34ZM76.6387 130.984C76.821 130.984 77.0195 130.994 77.2344 131.014C77.4492 131.033 77.6348 131.059 77.791 131.092L77.5762 133.24C77.4395 133.201 77.2702 133.172 77.0684 133.152C76.873 133.133 76.6973 133.123 76.541 133.123C76.1309 133.123 75.7402 133.191 75.3691 133.328C74.998 133.458 74.6693 133.66 74.3828 133.934C74.0964 134.201 73.8717 134.536 73.709 134.939C73.5462 135.343 73.4648 135.812 73.4648 136.346V142H71.1602V131.189H72.957L73.2695 133.094H73.377C73.5918 132.71 73.8587 132.358 74.1777 132.039C74.4967 131.72 74.8613 131.466 75.2715 131.277C75.6882 131.082 76.1439 130.984 76.6387 130.984ZM84.0312 130.984C85.3984 130.984 86.4303 131.287 87.127 131.893C87.8301 132.498 88.1816 133.442 88.1816 134.725V142H86.5508L86.1113 140.467H86.0332C85.7272 140.857 85.4115 141.18 85.0859 141.434C84.7604 141.688 84.3828 141.876 83.9531 142C83.5299 142.13 83.0124 142.195 82.4004 142.195C81.7559 142.195 81.1797 142.078 80.6719 141.844C80.1641 141.603 79.7637 141.238 79.4707 140.75C79.1777 140.262 79.0312 139.643 79.0312 138.895C79.0312 137.781 79.4447 136.945 80.2715 136.385C81.1048 135.825 82.3613 135.516 84.041 135.457L85.916 135.389V134.822C85.916 134.074 85.7402 133.54 85.3887 133.221C85.0436 132.902 84.5553 132.742 83.9238 132.742C83.3835 132.742 82.8594 132.82 82.3516 132.977C81.8438 133.133 81.349 133.325 80.8672 133.553L80.125 131.932C80.6523 131.652 81.2513 131.424 81.9219 131.248C82.599 131.072 83.3021 130.984 84.0312 130.984ZM85.9062 136.834L84.5098 136.883C83.3639 136.922 82.5599 137.117 82.0977 137.469C81.6354 137.82 81.4043 138.302 81.4043 138.914C81.4043 139.448 81.5638 139.839 81.8828 140.086C82.2018 140.327 82.6217 140.447 83.1426 140.447C83.9368 140.447 84.5944 140.223 85.1152 139.773C85.6426 139.318 85.9062 138.65 85.9062 137.771V136.834ZM95.418 140.34C95.7174 140.34 96.0137 140.314 96.3066 140.262C96.5996 140.203 96.8665 140.135 97.1074 140.057V141.795C96.8535 141.906 96.5247 142 96.1211 142.078C95.7174 142.156 95.2975 142.195 94.8613 142.195C94.2493 142.195 93.6992 142.094 93.2109 141.893C92.7227 141.684 92.3353 141.329 92.0488 140.828C91.7624 140.327 91.6191 139.633 91.6191 138.748V132.938H90.1445V131.912L91.7266 131.102L92.4785 128.787H93.9238V131.189H97.0195V132.938H93.9238V138.719C93.9238 139.266 94.0605 139.673 94.334 139.939C94.6074 140.206 94.9688 140.34 95.418 140.34ZM103.611 130.984C104.575 130.984 105.402 131.183 106.092 131.58C106.782 131.977 107.312 132.54 107.684 133.27C108.055 133.999 108.24 134.871 108.24 135.887V137.117H101.023C101.049 138.165 101.329 138.973 101.863 139.539C102.404 140.105 103.159 140.389 104.129 140.389C104.819 140.389 105.438 140.324 105.984 140.193C106.538 140.057 107.107 139.858 107.693 139.598V141.463C107.153 141.717 106.603 141.902 106.043 142.02C105.483 142.137 104.812 142.195 104.031 142.195C102.97 142.195 102.036 141.99 101.229 141.58C100.428 141.163 99.7995 140.545 99.3438 139.725C98.8945 138.904 98.6699 137.885 98.6699 136.668C98.6699 135.457 98.875 134.428 99.2852 133.582C99.6953 132.736 100.271 132.091 101.014 131.648C101.756 131.206 102.622 130.984 103.611 130.984ZM103.611 132.713C102.889 132.713 102.303 132.947 101.854 133.416C101.411 133.885 101.15 134.572 101.072 135.477H105.994C105.988 134.936 105.896 134.458 105.721 134.041C105.551 133.624 105.291 133.299 104.939 133.064C104.594 132.83 104.152 132.713 103.611 132.713ZM113.914 146.805C112.449 146.805 111.326 146.541 110.545 146.014C109.764 145.486 109.373 144.747 109.373 143.797C109.373 143.133 109.581 142.57 109.998 142.107C110.415 141.652 111.01 141.336 111.785 141.16C111.492 141.03 111.238 140.828 111.023 140.555C110.815 140.275 110.711 139.965 110.711 139.627C110.711 139.223 110.825 138.878 111.053 138.592C111.281 138.305 111.622 138.029 112.078 137.762C111.512 137.521 111.056 137.13 110.711 136.59C110.372 136.043 110.203 135.402 110.203 134.666C110.203 133.885 110.369 133.221 110.701 132.674C111.033 132.12 111.518 131.701 112.156 131.414C112.794 131.121 113.566 130.975 114.471 130.975C114.666 130.975 114.878 130.988 115.105 131.014C115.34 131.033 115.555 131.059 115.75 131.092C115.952 131.118 116.105 131.147 116.209 131.18H119.949V132.459L118.113 132.801C118.289 133.048 118.429 133.331 118.533 133.65C118.637 133.963 118.689 134.305 118.689 134.676C118.689 135.796 118.302 136.678 117.527 137.322C116.759 137.96 115.698 138.279 114.344 138.279C114.018 138.266 113.702 138.24 113.396 138.201C113.162 138.344 112.983 138.504 112.859 138.68C112.736 138.849 112.674 139.041 112.674 139.256C112.674 139.432 112.736 139.575 112.859 139.686C112.983 139.79 113.165 139.868 113.406 139.92C113.654 139.972 113.953 139.998 114.305 139.998H116.17C117.355 139.998 118.26 140.249 118.885 140.75C119.51 141.251 119.822 141.987 119.822 142.957C119.822 144.188 119.314 145.135 118.299 145.799C117.283 146.469 115.822 146.805 113.914 146.805ZM114.002 145.193C114.803 145.193 115.477 145.115 116.023 144.959C116.57 144.803 116.984 144.578 117.264 144.285C117.544 143.999 117.684 143.657 117.684 143.26C117.684 142.908 117.596 142.638 117.42 142.449C117.244 142.26 116.98 142.13 116.629 142.059C116.277 141.987 115.841 141.951 115.32 141.951H113.621C113.198 141.951 112.824 142.016 112.498 142.146C112.173 142.283 111.919 142.479 111.736 142.732C111.561 142.986 111.473 143.292 111.473 143.65C111.473 144.145 111.691 144.526 112.127 144.793C112.57 145.06 113.195 145.193 114.002 145.193ZM114.451 136.775C115.122 136.775 115.62 136.593 115.945 136.229C116.271 135.857 116.434 135.337 116.434 134.666C116.434 133.937 116.264 133.39 115.926 133.025C115.594 132.661 115.099 132.479 114.441 132.479C113.797 132.479 113.305 132.664 112.967 133.035C112.635 133.406 112.469 133.956 112.469 134.686C112.469 135.343 112.635 135.857 112.967 136.229C113.305 136.593 113.8 136.775 114.451 136.775ZM120.291 131.189H122.791L125.008 137.361C125.105 137.641 125.193 137.918 125.271 138.191C125.356 138.458 125.428 138.722 125.486 138.982C125.551 139.243 125.604 139.503 125.643 139.764H125.701C125.766 139.425 125.857 139.048 125.975 138.631C126.098 138.208 126.235 137.785 126.385 137.361L128.514 131.189H130.984L126.346 143.484C126.079 144.188 125.75 144.786 125.359 145.281C124.975 145.783 124.52 146.16 123.992 146.414C123.465 146.674 122.863 146.805 122.186 146.805C121.86 146.805 121.577 146.785 121.336 146.746C121.095 146.714 120.89 146.678 120.721 146.639V144.803C120.857 144.835 121.03 144.865 121.238 144.891C121.447 144.917 121.661 144.93 121.883 144.93C122.293 144.93 122.648 144.848 122.947 144.686C123.247 144.523 123.501 144.292 123.709 143.992C123.917 143.699 124.09 143.364 124.227 142.986L124.607 141.971L120.291 131.189ZM142.205 127.723C144.048 127.723 145.392 128.1 146.238 128.855C147.085 129.611 147.508 130.669 147.508 132.029C147.508 132.648 147.41 133.237 147.215 133.797C147.026 134.35 146.714 134.842 146.277 135.271C145.841 135.695 145.265 136.03 144.549 136.277C143.839 136.525 142.964 136.648 141.922 136.648H140.398V142H138.055V127.723H142.205ZM142.049 129.666H140.398V134.695H141.678C142.413 134.695 143.038 134.611 143.553 134.441C144.067 134.266 144.458 133.989 144.725 133.611C144.992 133.234 145.125 132.736 145.125 132.117C145.125 131.29 144.874 130.675 144.373 130.271C143.878 129.868 143.104 129.666 142.049 129.666ZM152.43 142H150.125V126.805H152.43V142ZM159.949 130.984C161.316 130.984 162.348 131.287 163.045 131.893C163.748 132.498 164.1 133.442 164.1 134.725V142H162.469L162.029 140.467H161.951C161.645 140.857 161.329 141.18 161.004 141.434C160.678 141.688 160.301 141.876 159.871 142C159.448 142.13 158.93 142.195 158.318 142.195C157.674 142.195 157.098 142.078 156.59 141.844C156.082 141.603 155.682 141.238 155.389 140.75C155.096 140.262 154.949 139.643 154.949 138.895C154.949 137.781 155.363 136.945 156.189 136.385C157.023 135.825 158.279 135.516 159.959 135.457L161.834 135.389V134.822C161.834 134.074 161.658 133.54 161.307 133.221C160.962 132.902 160.473 132.742 159.842 132.742C159.301 132.742 158.777 132.82 158.27 132.977C157.762 133.133 157.267 133.325 156.785 133.553L156.043 131.932C156.57 131.652 157.169 131.424 157.84 131.248C158.517 131.072 159.22 130.984 159.949 130.984ZM161.824 136.834L160.428 136.883C159.282 136.922 158.478 137.117 158.016 137.469C157.553 137.82 157.322 138.302 157.322 138.914C157.322 139.448 157.482 139.839 157.801 140.086C158.12 140.327 158.54 140.447 159.061 140.447C159.855 140.447 160.512 140.223 161.033 139.773C161.561 139.318 161.824 138.65 161.824 137.771V136.834ZM172.947 130.984C174.165 130.984 175.112 131.3 175.789 131.932C176.473 132.557 176.814 133.562 176.814 134.949V142H174.52V135.379C174.52 134.539 174.347 133.911 174.002 133.494C173.657 133.071 173.123 132.859 172.4 132.859C171.352 132.859 170.623 133.182 170.213 133.826C169.809 134.471 169.607 135.405 169.607 136.629V142H167.312V131.189H169.1L169.422 132.654H169.549C169.783 132.277 170.073 131.967 170.418 131.727C170.77 131.479 171.16 131.294 171.59 131.17C172.026 131.046 172.479 130.984 172.947 130.984Z" fill="#7D49C5"/>
<path d="M305.367 113V98.7227H307.711V113H305.367ZM323.463 101.984C324.674 101.984 325.585 102.297 326.197 102.922C326.816 103.547 327.125 104.549 327.125 105.93V113H324.83V106.34C324.83 105.52 324.671 104.901 324.352 104.484C324.033 104.068 323.548 103.859 322.896 103.859C321.985 103.859 321.327 104.152 320.924 104.738C320.527 105.318 320.328 106.161 320.328 107.268V113H318.033V106.34C318.033 105.793 317.962 105.337 317.818 104.973C317.682 104.602 317.47 104.325 317.184 104.143C316.897 103.954 316.536 103.859 316.1 103.859C315.468 103.859 314.964 104.003 314.586 104.289C314.215 104.576 313.948 104.999 313.785 105.559C313.622 106.112 313.541 106.792 313.541 107.6V113H311.246V102.189H313.033L313.355 103.645H313.482C313.704 103.267 313.977 102.958 314.303 102.717C314.635 102.469 315.003 102.287 315.406 102.17C315.81 102.046 316.23 101.984 316.666 101.984C317.473 101.984 318.154 102.128 318.707 102.414C319.26 102.694 319.674 103.124 319.947 103.703H320.123C320.462 103.117 320.934 102.684 321.539 102.404C322.145 102.124 322.786 101.984 323.463 101.984ZM335.875 101.984C337.158 101.984 338.186 102.453 338.961 103.391C339.742 104.328 340.133 105.721 340.133 107.57C340.133 108.794 339.951 109.826 339.586 110.666C339.228 111.499 338.723 112.131 338.072 112.561C337.428 112.984 336.676 113.195 335.816 113.195C335.27 113.195 334.794 113.124 334.391 112.98C333.987 112.837 333.642 112.652 333.355 112.424C333.069 112.189 332.828 111.936 332.633 111.662H332.496C332.529 111.923 332.558 112.212 332.584 112.531C332.617 112.844 332.633 113.13 332.633 113.391V117.795H330.328V102.189H332.203L332.525 103.684H332.633C332.835 103.378 333.079 103.094 333.365 102.834C333.658 102.574 334.01 102.368 334.42 102.219C334.837 102.062 335.322 101.984 335.875 101.984ZM335.26 103.859C334.628 103.859 334.12 103.986 333.736 104.24C333.359 104.488 333.082 104.862 332.906 105.363C332.737 105.865 332.646 106.493 332.633 107.248V107.57C332.633 108.371 332.714 109.051 332.877 109.611C333.046 110.165 333.323 110.588 333.707 110.881C334.098 111.167 334.625 111.311 335.289 111.311C335.849 111.311 336.311 111.158 336.676 110.852C337.047 110.546 337.324 110.109 337.506 109.543C337.688 108.977 337.779 108.309 337.779 107.541C337.779 106.376 337.571 105.471 337.154 104.826C336.744 104.182 336.113 103.859 335.26 103.859ZM345.094 113H342.789V97.8047H345.094V113ZM352.682 101.984C353.645 101.984 354.472 102.183 355.162 102.58C355.852 102.977 356.383 103.54 356.754 104.27C357.125 104.999 357.311 105.871 357.311 106.887V108.117H350.094C350.12 109.165 350.4 109.973 350.934 110.539C351.474 111.105 352.229 111.389 353.199 111.389C353.889 111.389 354.508 111.324 355.055 111.193C355.608 111.057 356.178 110.858 356.764 110.598V112.463C356.223 112.717 355.673 112.902 355.113 113.02C354.553 113.137 353.883 113.195 353.102 113.195C352.04 113.195 351.106 112.99 350.299 112.58C349.498 112.163 348.87 111.545 348.414 110.725C347.965 109.904 347.74 108.885 347.74 107.668C347.74 106.457 347.945 105.428 348.355 104.582C348.766 103.736 349.342 103.091 350.084 102.648C350.826 102.206 351.692 101.984 352.682 101.984ZM352.682 103.713C351.959 103.713 351.373 103.947 350.924 104.416C350.481 104.885 350.221 105.572 350.143 106.477H355.064C355.058 105.936 354.967 105.458 354.791 105.041C354.622 104.624 354.361 104.299 354.01 104.064C353.665 103.83 353.222 103.713 352.682 103.713ZM372.115 101.984C373.326 101.984 374.238 102.297 374.85 102.922C375.468 103.547 375.777 104.549 375.777 105.93V113H373.482V106.34C373.482 105.52 373.323 104.901 373.004 104.484C372.685 104.068 372.2 103.859 371.549 103.859C370.637 103.859 369.98 104.152 369.576 104.738C369.179 105.318 368.98 106.161 368.98 107.268V113H366.686V106.34C366.686 105.793 366.614 105.337 366.471 104.973C366.334 104.602 366.122 104.325 365.836 104.143C365.549 103.954 365.188 103.859 364.752 103.859C364.12 103.859 363.616 104.003 363.238 104.289C362.867 104.576 362.6 104.999 362.438 105.559C362.275 106.112 362.193 106.792 362.193 107.6V113H359.898V102.189H361.686L362.008 103.645H362.135C362.356 103.267 362.63 102.958 362.955 102.717C363.287 102.469 363.655 102.287 364.059 102.17C364.462 102.046 364.882 101.984 365.318 101.984C366.126 101.984 366.806 102.128 367.359 102.414C367.913 102.694 368.326 103.124 368.6 103.703H368.775C369.114 103.117 369.586 102.684 370.191 102.404C370.797 102.124 371.438 101.984 372.115 101.984ZM383.287 101.984C384.251 101.984 385.077 102.183 385.768 102.58C386.458 102.977 386.988 103.54 387.359 104.27C387.73 104.999 387.916 105.871 387.916 106.887V108.117H380.699C380.725 109.165 381.005 109.973 381.539 110.539C382.079 111.105 382.835 111.389 383.805 111.389C384.495 111.389 385.113 111.324 385.66 111.193C386.214 111.057 386.783 110.858 387.369 110.598V112.463C386.829 112.717 386.279 112.902 385.719 113.02C385.159 113.137 384.488 113.195 383.707 113.195C382.646 113.195 381.712 112.99 380.904 112.58C380.104 112.163 379.475 111.545 379.02 110.725C378.57 109.904 378.346 108.885 378.346 107.668C378.346 106.457 378.551 105.428 378.961 104.582C379.371 103.736 379.947 103.091 380.689 102.648C381.432 102.206 382.298 101.984 383.287 101.984ZM383.287 103.713C382.564 103.713 381.979 103.947 381.529 104.416C381.087 104.885 380.826 105.572 380.748 106.477H385.67C385.663 105.936 385.572 105.458 385.396 105.041C385.227 104.624 384.967 104.299 384.615 104.064C384.27 103.83 383.827 103.713 383.287 103.713ZM396.139 101.984C397.356 101.984 398.303 102.3 398.98 102.932C399.664 103.557 400.006 104.562 400.006 105.949V113H397.711V106.379C397.711 105.539 397.538 104.911 397.193 104.494C396.848 104.071 396.314 103.859 395.592 103.859C394.544 103.859 393.814 104.182 393.404 104.826C393.001 105.471 392.799 106.405 392.799 107.629V113H390.504V102.189H392.291L392.613 103.654H392.74C392.975 103.277 393.264 102.967 393.609 102.727C393.961 102.479 394.352 102.294 394.781 102.17C395.217 102.046 395.67 101.984 396.139 101.984ZM407.242 111.34C407.542 111.34 407.838 111.314 408.131 111.262C408.424 111.203 408.691 111.135 408.932 111.057V112.795C408.678 112.906 408.349 113 407.945 113.078C407.542 113.156 407.122 113.195 406.686 113.195C406.074 113.195 405.523 113.094 405.035 112.893C404.547 112.684 404.16 112.329 403.873 111.828C403.587 111.327 403.443 110.633 403.443 109.748V103.938H401.969V102.912L403.551 102.102L404.303 99.7871H405.748V102.189H408.844V103.938H405.748V109.719C405.748 110.266 405.885 110.673 406.158 110.939C406.432 111.206 406.793 111.34 407.242 111.34ZM415.367 101.984C416.734 101.984 417.766 102.287 418.463 102.893C419.166 103.498 419.518 104.442 419.518 105.725V113H417.887L417.447 111.467H417.369C417.063 111.857 416.747 112.18 416.422 112.434C416.096 112.688 415.719 112.876 415.289 113C414.866 113.13 414.348 113.195 413.736 113.195C413.092 113.195 412.516 113.078 412.008 112.844C411.5 112.603 411.1 112.238 410.807 111.75C410.514 111.262 410.367 110.643 410.367 109.895C410.367 108.781 410.781 107.945 411.607 107.385C412.441 106.825 413.697 106.516 415.377 106.457L417.252 106.389V105.822C417.252 105.074 417.076 104.54 416.725 104.221C416.38 103.902 415.891 103.742 415.26 103.742C414.719 103.742 414.195 103.82 413.688 103.977C413.18 104.133 412.685 104.325 412.203 104.553L411.461 102.932C411.988 102.652 412.587 102.424 413.258 102.248C413.935 102.072 414.638 101.984 415.367 101.984ZM417.242 107.834L415.846 107.883C414.7 107.922 413.896 108.117 413.434 108.469C412.971 108.82 412.74 109.302 412.74 109.914C412.74 110.448 412.9 110.839 413.219 111.086C413.538 111.327 413.958 111.447 414.479 111.447C415.273 111.447 415.93 111.223 416.451 110.773C416.979 110.318 417.242 109.65 417.242 108.771V107.834ZM426.754 111.34C427.053 111.34 427.35 111.314 427.643 111.262C427.936 111.203 428.202 111.135 428.443 111.057V112.795C428.189 112.906 427.861 113 427.457 113.078C427.053 113.156 426.633 113.195 426.197 113.195C425.585 113.195 425.035 113.094 424.547 112.893C424.059 112.684 423.671 112.329 423.385 111.828C423.098 111.327 422.955 110.633 422.955 109.748V103.938H421.48V102.912L423.062 102.102L423.814 99.7871H425.26V102.189H428.355V103.938H425.26V109.719C425.26 110.266 425.396 110.673 425.67 110.939C425.943 111.206 426.305 111.34 426.754 111.34ZM432.936 102.189V113H430.641V102.189H432.936ZM431.803 98.0488C432.154 98.0488 432.457 98.1432 432.711 98.332C432.971 98.5208 433.102 98.8464 433.102 99.3086C433.102 99.7643 432.971 100.09 432.711 100.285C432.457 100.474 432.154 100.568 431.803 100.568C431.438 100.568 431.129 100.474 430.875 100.285C430.628 100.09 430.504 99.7643 430.504 99.3086C430.504 98.8464 430.628 98.5208 430.875 98.332C431.129 98.1432 431.438 98.0488 431.803 98.0488ZM445.797 107.57C445.797 108.469 445.68 109.266 445.445 109.963C445.211 110.66 444.869 111.249 444.42 111.73C443.971 112.206 443.43 112.57 442.799 112.824C442.167 113.072 441.454 113.195 440.66 113.195C439.918 113.195 439.238 113.072 438.619 112.824C438.001 112.57 437.464 112.206 437.008 111.73C436.559 111.249 436.21 110.66 435.963 109.963C435.715 109.266 435.592 108.469 435.592 107.57C435.592 106.379 435.797 105.37 436.207 104.543C436.624 103.71 437.216 103.075 437.984 102.639C438.753 102.202 439.667 101.984 440.729 101.984C441.725 101.984 442.604 102.202 443.365 102.639C444.127 103.075 444.723 103.71 445.152 104.543C445.582 105.376 445.797 106.385 445.797 107.57ZM437.955 107.57C437.955 108.358 438.049 109.032 438.238 109.592C438.434 110.152 438.733 110.581 439.137 110.881C439.54 111.174 440.061 111.32 440.699 111.32C441.337 111.32 441.858 111.174 442.262 110.881C442.665 110.581 442.962 110.152 443.15 109.592C443.339 109.032 443.434 108.358 443.434 107.57C443.434 106.783 443.339 106.115 443.15 105.568C442.962 105.015 442.665 104.595 442.262 104.309C441.858 104.016 441.334 103.869 440.689 103.869C439.739 103.869 439.046 104.188 438.609 104.826C438.173 105.464 437.955 106.379 437.955 107.57ZM454.068 101.984C455.286 101.984 456.233 102.3 456.91 102.932C457.594 103.557 457.936 104.562 457.936 105.949V113H455.641V106.379C455.641 105.539 455.468 104.911 455.123 104.494C454.778 104.071 454.244 103.859 453.521 103.859C452.473 103.859 451.744 104.182 451.334 104.826C450.93 105.471 450.729 106.405 450.729 107.629V113H448.434V102.189H450.221L450.543 103.654H450.67C450.904 103.277 451.194 102.967 451.539 102.727C451.891 102.479 452.281 102.294 452.711 102.17C453.147 102.046 453.6 101.984 454.068 101.984ZM340.201 133.57C340.201 134.469 340.084 135.266 339.85 135.963C339.615 136.66 339.273 137.249 338.824 137.73C338.375 138.206 337.835 138.57 337.203 138.824C336.572 139.072 335.859 139.195 335.064 139.195C334.322 139.195 333.642 139.072 333.023 138.824C332.405 138.57 331.868 138.206 331.412 137.73C330.963 137.249 330.615 136.66 330.367 135.963C330.12 135.266 329.996 134.469 329.996 133.57C329.996 132.379 330.201 131.37 330.611 130.543C331.028 129.71 331.62 129.075 332.389 128.639C333.157 128.202 334.072 127.984 335.133 127.984C336.129 127.984 337.008 128.202 337.77 128.639C338.531 129.075 339.127 129.71 339.557 130.543C339.986 131.376 340.201 132.385 340.201 133.57ZM332.359 133.57C332.359 134.358 332.454 135.032 332.643 135.592C332.838 136.152 333.137 136.581 333.541 136.881C333.945 137.174 334.465 137.32 335.104 137.32C335.742 137.32 336.262 137.174 336.666 136.881C337.07 136.581 337.366 136.152 337.555 135.592C337.743 135.032 337.838 134.358 337.838 133.57C337.838 132.783 337.743 132.115 337.555 131.568C337.366 131.015 337.07 130.595 336.666 130.309C336.262 130.016 335.738 129.869 335.094 129.869C334.143 129.869 333.45 130.188 333.014 130.826C332.577 131.464 332.359 132.379 332.359 133.57ZM348.238 129.938H345.611V139H343.316V129.938H341.549V128.834L343.316 128.16V127.408C343.316 126.49 343.46 125.761 343.746 125.221C344.039 124.68 344.456 124.293 344.996 124.059C345.543 123.818 346.194 123.697 346.949 123.697C347.444 123.697 347.896 123.74 348.307 123.824C348.717 123.902 349.062 123.993 349.342 124.098L348.746 125.836C348.525 125.764 348.277 125.699 348.004 125.641C347.73 125.576 347.438 125.543 347.125 125.543C346.604 125.543 346.22 125.706 345.973 126.031C345.732 126.357 345.611 126.832 345.611 127.457V128.189H348.238V129.938ZM363.756 135.113C363.756 135.96 363.548 136.689 363.131 137.301C362.721 137.913 362.128 138.382 361.354 138.707C360.585 139.033 359.667 139.195 358.6 139.195C358.079 139.195 357.581 139.166 357.105 139.107C356.63 139.049 356.181 138.964 355.758 138.854C355.341 138.736 354.96 138.596 354.615 138.434V136.227C355.195 136.48 355.842 136.712 356.559 136.92C357.275 137.122 358.004 137.223 358.746 137.223C359.352 137.223 359.853 137.145 360.25 136.988C360.654 136.826 360.953 136.598 361.148 136.305C361.344 136.005 361.441 135.657 361.441 135.26C361.441 134.837 361.327 134.479 361.1 134.186C360.872 133.893 360.527 133.626 360.064 133.385C359.609 133.137 359.036 132.874 358.346 132.594C357.877 132.405 357.428 132.19 356.998 131.949C356.575 131.708 356.197 131.425 355.865 131.1C355.533 130.774 355.27 130.39 355.074 129.947C354.885 129.498 354.791 128.971 354.791 128.365C354.791 127.558 354.983 126.868 355.367 126.295C355.758 125.722 356.305 125.283 357.008 124.977C357.717 124.671 358.544 124.518 359.488 124.518C360.237 124.518 360.94 124.596 361.598 124.752C362.262 124.908 362.913 125.13 363.551 125.416L362.809 127.301C362.223 127.06 361.653 126.868 361.1 126.725C360.553 126.581 359.993 126.51 359.42 126.51C358.925 126.51 358.505 126.585 358.16 126.734C357.815 126.884 357.551 127.096 357.369 127.369C357.193 127.636 357.105 127.955 357.105 128.326C357.105 128.743 357.206 129.094 357.408 129.381C357.617 129.661 357.936 129.918 358.365 130.152C358.801 130.387 359.361 130.647 360.045 130.934C360.833 131.259 361.5 131.601 362.047 131.959C362.6 132.317 363.023 132.747 363.316 133.248C363.609 133.743 363.756 134.365 363.756 135.113ZM370.299 137.34C370.598 137.34 370.895 137.314 371.188 137.262C371.48 137.203 371.747 137.135 371.988 137.057V138.795C371.734 138.906 371.406 139 371.002 139.078C370.598 139.156 370.178 139.195 369.742 139.195C369.13 139.195 368.58 139.094 368.092 138.893C367.604 138.684 367.216 138.329 366.93 137.828C366.643 137.327 366.5 136.633 366.5 135.748V129.938H365.025V128.912L366.607 128.102L367.359 125.787H368.805V128.189H371.9V129.938H368.805V135.719C368.805 136.266 368.941 136.673 369.215 136.939C369.488 137.206 369.85 137.34 370.299 137.34ZM379.664 127.984C379.846 127.984 380.045 127.994 380.26 128.014C380.475 128.033 380.66 128.059 380.816 128.092L380.602 130.24C380.465 130.201 380.296 130.172 380.094 130.152C379.898 130.133 379.723 130.123 379.566 130.123C379.156 130.123 378.766 130.191 378.395 130.328C378.023 130.458 377.695 130.66 377.408 130.934C377.122 131.201 376.897 131.536 376.734 131.939C376.572 132.343 376.49 132.812 376.49 133.346V139H374.186V128.189H375.982L376.295 130.094H376.402C376.617 129.71 376.884 129.358 377.203 129.039C377.522 128.72 377.887 128.466 378.297 128.277C378.714 128.082 379.169 127.984 379.664 127.984ZM387.057 127.984C388.424 127.984 389.456 128.287 390.152 128.893C390.855 129.498 391.207 130.442 391.207 131.725V139H389.576L389.137 137.467H389.059C388.753 137.857 388.437 138.18 388.111 138.434C387.786 138.688 387.408 138.876 386.979 139C386.555 139.13 386.038 139.195 385.426 139.195C384.781 139.195 384.205 139.078 383.697 138.844C383.189 138.603 382.789 138.238 382.496 137.75C382.203 137.262 382.057 136.643 382.057 135.895C382.057 134.781 382.47 133.945 383.297 133.385C384.13 132.825 385.387 132.516 387.066 132.457L388.941 132.389V131.822C388.941 131.074 388.766 130.54 388.414 130.221C388.069 129.902 387.581 129.742 386.949 129.742C386.409 129.742 385.885 129.82 385.377 129.977C384.869 130.133 384.374 130.325 383.893 130.553L383.15 128.932C383.678 128.652 384.277 128.424 384.947 128.248C385.624 128.072 386.327 127.984 387.057 127.984ZM388.932 133.834L387.535 133.883C386.389 133.922 385.585 134.117 385.123 134.469C384.661 134.82 384.43 135.302 384.43 135.914C384.43 136.448 384.589 136.839 384.908 137.086C385.227 137.327 385.647 137.447 386.168 137.447C386.962 137.447 387.62 137.223 388.141 136.773C388.668 136.318 388.932 135.65 388.932 134.771V133.834ZM398.443 137.34C398.743 137.34 399.039 137.314 399.332 137.262C399.625 137.203 399.892 137.135 400.133 137.057V138.795C399.879 138.906 399.55 139 399.146 139.078C398.743 139.156 398.323 139.195 397.887 139.195C397.275 139.195 396.725 139.094 396.236 138.893C395.748 138.684 395.361 138.329 395.074 137.828C394.788 137.327 394.645 136.633 394.645 135.748V129.938H393.17V128.912L394.752 128.102L395.504 125.787H396.949V128.189H400.045V129.938H396.949V135.719C396.949 136.266 397.086 136.673 397.359 136.939C397.633 137.206 397.994 137.34 398.443 137.34ZM406.637 127.984C407.6 127.984 408.427 128.183 409.117 128.58C409.807 128.977 410.338 129.54 410.709 130.27C411.08 130.999 411.266 131.871 411.266 132.887V134.117H404.049C404.075 135.165 404.355 135.973 404.889 136.539C405.429 137.105 406.184 137.389 407.154 137.389C407.844 137.389 408.463 137.324 409.01 137.193C409.563 137.057 410.133 136.858 410.719 136.598V138.463C410.178 138.717 409.628 138.902 409.068 139.02C408.508 139.137 407.838 139.195 407.057 139.195C405.995 139.195 405.061 138.99 404.254 138.58C403.453 138.163 402.825 137.545 402.369 136.725C401.92 135.904 401.695 134.885 401.695 133.668C401.695 132.457 401.9 131.428 402.311 130.582C402.721 129.736 403.297 129.091 404.039 128.648C404.781 128.206 405.647 127.984 406.637 127.984ZM406.637 129.713C405.914 129.713 405.328 129.947 404.879 130.416C404.436 130.885 404.176 131.572 404.098 132.477H409.02C409.013 131.936 408.922 131.458 408.746 131.041C408.577 130.624 408.316 130.299 407.965 130.064C407.62 129.83 407.177 129.713 406.637 129.713ZM416.939 143.805C415.475 143.805 414.352 143.541 413.57 143.014C412.789 142.486 412.398 141.747 412.398 140.797C412.398 140.133 412.607 139.57 413.023 139.107C413.44 138.652 414.036 138.336 414.811 138.16C414.518 138.03 414.264 137.828 414.049 137.555C413.84 137.275 413.736 136.965 413.736 136.627C413.736 136.223 413.85 135.878 414.078 135.592C414.306 135.305 414.648 135.029 415.104 134.762C414.537 134.521 414.081 134.13 413.736 133.59C413.398 133.043 413.229 132.402 413.229 131.666C413.229 130.885 413.395 130.221 413.727 129.674C414.059 129.12 414.544 128.701 415.182 128.414C415.82 128.121 416.591 127.975 417.496 127.975C417.691 127.975 417.903 127.988 418.131 128.014C418.365 128.033 418.58 128.059 418.775 128.092C418.977 128.118 419.13 128.147 419.234 128.18H422.975V129.459L421.139 129.801C421.314 130.048 421.454 130.331 421.559 130.65C421.663 130.963 421.715 131.305 421.715 131.676C421.715 132.796 421.327 133.678 420.553 134.322C419.785 134.96 418.723 135.279 417.369 135.279C417.044 135.266 416.728 135.24 416.422 135.201C416.188 135.344 416.008 135.504 415.885 135.68C415.761 135.849 415.699 136.041 415.699 136.256C415.699 136.432 415.761 136.575 415.885 136.686C416.008 136.79 416.191 136.868 416.432 136.92C416.679 136.972 416.979 136.998 417.33 136.998H419.195C420.38 136.998 421.285 137.249 421.91 137.75C422.535 138.251 422.848 138.987 422.848 139.957C422.848 141.188 422.34 142.135 421.324 142.799C420.309 143.469 418.847 143.805 416.939 143.805ZM417.027 142.193C417.828 142.193 418.502 142.115 419.049 141.959C419.596 141.803 420.009 141.578 420.289 141.285C420.569 140.999 420.709 140.657 420.709 140.26C420.709 139.908 420.621 139.638 420.445 139.449C420.27 139.26 420.006 139.13 419.654 139.059C419.303 138.987 418.867 138.951 418.346 138.951H416.646C416.223 138.951 415.849 139.016 415.523 139.146C415.198 139.283 414.944 139.479 414.762 139.732C414.586 139.986 414.498 140.292 414.498 140.65C414.498 141.145 414.716 141.526 415.152 141.793C415.595 142.06 416.22 142.193 417.027 142.193ZM417.477 133.775C418.147 133.775 418.645 133.593 418.971 133.229C419.296 132.857 419.459 132.337 419.459 131.666C419.459 130.937 419.29 130.39 418.951 130.025C418.619 129.661 418.124 129.479 417.467 129.479C416.822 129.479 416.331 129.664 415.992 130.035C415.66 130.406 415.494 130.956 415.494 131.686C415.494 132.343 415.66 132.857 415.992 133.229C416.331 133.593 416.826 133.775 417.477 133.775ZM423.316 128.189H425.816L428.033 134.361C428.131 134.641 428.219 134.918 428.297 135.191C428.382 135.458 428.453 135.722 428.512 135.982C428.577 136.243 428.629 136.503 428.668 136.764H428.727C428.792 136.425 428.883 136.048 429 135.631C429.124 135.208 429.26 134.785 429.41 134.361L431.539 128.189H434.01L429.371 140.484C429.104 141.188 428.775 141.786 428.385 142.281C428.001 142.783 427.545 143.16 427.018 143.414C426.49 143.674 425.888 143.805 425.211 143.805C424.885 143.805 424.602 143.785 424.361 143.746C424.12 143.714 423.915 143.678 423.746 143.639V141.803C423.883 141.835 424.055 141.865 424.264 141.891C424.472 141.917 424.687 141.93 424.908 141.93C425.318 141.93 425.673 141.848 425.973 141.686C426.272 141.523 426.526 141.292 426.734 140.992C426.943 140.699 427.115 140.364 427.252 139.986L427.633 138.971L423.316 128.189Z" fill="#39BDB8"/>
<path d="M581.32 99.7227C583.163 99.7227 584.507 100.1 585.354 100.855C586.2 101.611 586.623 102.669 586.623 104.029C586.623 104.648 586.525 105.237 586.33 105.797C586.141 106.35 585.829 106.842 585.393 107.271C584.956 107.695 584.38 108.03 583.664 108.277C582.954 108.525 582.079 108.648 581.037 108.648H579.514V114H577.17V99.7227H581.32ZM581.164 101.666H579.514V106.695H580.793C581.529 106.695 582.154 106.611 582.668 106.441C583.182 106.266 583.573 105.989 583.84 105.611C584.107 105.234 584.24 104.736 584.24 104.117C584.24 103.29 583.99 102.675 583.488 102.271C582.993 101.868 582.219 101.666 581.164 101.666ZM593.547 102.984C594.51 102.984 595.337 103.183 596.027 103.58C596.717 103.977 597.248 104.54 597.619 105.27C597.99 105.999 598.176 106.871 598.176 107.887V109.117H590.959C590.985 110.165 591.265 110.973 591.799 111.539C592.339 112.105 593.094 112.389 594.064 112.389C594.755 112.389 595.373 112.324 595.92 112.193C596.473 112.057 597.043 111.858 597.629 111.598V113.463C597.089 113.717 596.538 113.902 595.979 114.02C595.419 114.137 594.748 114.195 593.967 114.195C592.906 114.195 591.971 113.99 591.164 113.58C590.363 113.163 589.735 112.545 589.279 111.725C588.83 110.904 588.605 109.885 588.605 108.668C588.605 107.457 588.811 106.428 589.221 105.582C589.631 104.736 590.207 104.091 590.949 103.648C591.691 103.206 592.557 102.984 593.547 102.984ZM593.547 104.713C592.824 104.713 592.238 104.947 591.789 105.416C591.346 105.885 591.086 106.572 591.008 107.477H595.93C595.923 106.936 595.832 106.458 595.656 106.041C595.487 105.624 595.227 105.299 594.875 105.064C594.53 104.83 594.087 104.713 593.547 104.713ZM606.242 102.984C606.424 102.984 606.623 102.994 606.838 103.014C607.053 103.033 607.238 103.059 607.395 103.092L607.18 105.24C607.043 105.201 606.874 105.172 606.672 105.152C606.477 105.133 606.301 105.123 606.145 105.123C605.734 105.123 605.344 105.191 604.973 105.328C604.602 105.458 604.273 105.66 603.986 105.934C603.7 106.201 603.475 106.536 603.312 106.939C603.15 107.343 603.068 107.812 603.068 108.346V114H600.764V103.189H602.561L602.873 105.094H602.98C603.195 104.71 603.462 104.358 603.781 104.039C604.1 103.72 604.465 103.466 604.875 103.277C605.292 103.082 605.747 102.984 606.242 102.984ZM614.797 104.938H612.17V114H609.875V104.938H608.107V103.834L609.875 103.16V102.408C609.875 101.49 610.018 100.761 610.305 100.221C610.598 99.6803 611.014 99.293 611.555 99.0586C612.102 98.8177 612.753 98.6973 613.508 98.6973C614.003 98.6973 614.455 98.7396 614.865 98.8242C615.275 98.9023 615.62 98.9935 615.9 99.0977L615.305 100.836C615.083 100.764 614.836 100.699 614.562 100.641C614.289 100.576 613.996 100.543 613.684 100.543C613.163 100.543 612.779 100.706 612.531 101.031C612.29 101.357 612.17 101.832 612.17 102.457V103.189H614.797V104.938ZM626.213 108.57C626.213 109.469 626.096 110.266 625.861 110.963C625.627 111.66 625.285 112.249 624.836 112.73C624.387 113.206 623.846 113.57 623.215 113.824C622.583 114.072 621.87 114.195 621.076 114.195C620.334 114.195 619.654 114.072 619.035 113.824C618.417 113.57 617.88 113.206 617.424 112.73C616.975 112.249 616.626 111.66 616.379 110.963C616.132 110.266 616.008 109.469 616.008 108.57C616.008 107.379 616.213 106.37 616.623 105.543C617.04 104.71 617.632 104.075 618.4 103.639C619.169 103.202 620.083 102.984 621.145 102.984C622.141 102.984 623.02 103.202 623.781 103.639C624.543 104.075 625.139 104.71 625.568 105.543C625.998 106.376 626.213 107.385 626.213 108.57ZM618.371 108.57C618.371 109.358 618.465 110.032 618.654 110.592C618.85 111.152 619.149 111.581 619.553 111.881C619.956 112.174 620.477 112.32 621.115 112.32C621.753 112.32 622.274 112.174 622.678 111.881C623.081 111.581 623.378 111.152 623.566 110.592C623.755 110.032 623.85 109.358 623.85 108.57C623.85 107.783 623.755 107.115 623.566 106.568C623.378 106.015 623.081 105.595 622.678 105.309C622.274 105.016 621.75 104.869 621.105 104.869C620.155 104.869 619.462 105.188 619.025 105.826C618.589 106.464 618.371 107.379 618.371 108.57ZM634.328 102.984C634.51 102.984 634.709 102.994 634.924 103.014C635.139 103.033 635.324 103.059 635.48 103.092L635.266 105.24C635.129 105.201 634.96 105.172 634.758 105.152C634.562 105.133 634.387 105.123 634.23 105.123C633.82 105.123 633.43 105.191 633.059 105.328C632.688 105.458 632.359 105.66 632.072 105.934C631.786 106.201 631.561 106.536 631.398 106.939C631.236 107.343 631.154 107.812 631.154 108.346V114H628.85V103.189H630.646L630.959 105.094H631.066C631.281 104.71 631.548 104.358 631.867 104.039C632.186 103.72 632.551 103.466 632.961 103.277C633.378 103.082 633.833 102.984 634.328 102.984ZM649.699 102.984C650.91 102.984 651.822 103.297 652.434 103.922C653.052 104.547 653.361 105.549 653.361 106.93V114H651.066V107.34C651.066 106.52 650.907 105.901 650.588 105.484C650.269 105.068 649.784 104.859 649.133 104.859C648.221 104.859 647.564 105.152 647.16 105.738C646.763 106.318 646.564 107.161 646.564 108.268V114H644.27V107.34C644.27 106.793 644.198 106.337 644.055 105.973C643.918 105.602 643.706 105.325 643.42 105.143C643.133 104.954 642.772 104.859 642.336 104.859C641.704 104.859 641.2 105.003 640.822 105.289C640.451 105.576 640.184 105.999 640.021 106.559C639.859 107.112 639.777 107.792 639.777 108.6V114H637.482V103.189H639.27L639.592 104.645H639.719C639.94 104.267 640.214 103.958 640.539 103.717C640.871 103.469 641.239 103.287 641.643 103.17C642.046 103.046 642.466 102.984 642.902 102.984C643.71 102.984 644.39 103.128 644.943 103.414C645.497 103.694 645.91 104.124 646.184 104.703H646.359C646.698 104.117 647.17 103.684 647.775 103.404C648.381 103.124 649.022 102.984 649.699 102.984ZM660.803 102.984C662.17 102.984 663.202 103.287 663.898 103.893C664.602 104.498 664.953 105.442 664.953 106.725V114H663.322L662.883 112.467H662.805C662.499 112.857 662.183 113.18 661.857 113.434C661.532 113.688 661.154 113.876 660.725 114C660.301 114.13 659.784 114.195 659.172 114.195C658.527 114.195 657.951 114.078 657.443 113.844C656.936 113.603 656.535 113.238 656.242 112.75C655.949 112.262 655.803 111.643 655.803 110.895C655.803 109.781 656.216 108.945 657.043 108.385C657.876 107.825 659.133 107.516 660.812 107.457L662.688 107.389V106.822C662.688 106.074 662.512 105.54 662.16 105.221C661.815 104.902 661.327 104.742 660.695 104.742C660.155 104.742 659.631 104.82 659.123 104.977C658.615 105.133 658.12 105.325 657.639 105.553L656.896 103.932C657.424 103.652 658.023 103.424 658.693 103.248C659.37 103.072 660.074 102.984 660.803 102.984ZM662.678 108.834L661.281 108.883C660.135 108.922 659.331 109.117 658.869 109.469C658.407 109.82 658.176 110.302 658.176 110.914C658.176 111.448 658.335 111.839 658.654 112.086C658.973 112.327 659.393 112.447 659.914 112.447C660.708 112.447 661.366 112.223 661.887 111.773C662.414 111.318 662.678 110.65 662.678 109.771V108.834ZM673.801 102.984C675.018 102.984 675.965 103.3 676.643 103.932C677.326 104.557 677.668 105.562 677.668 106.949V114H675.373V107.379C675.373 106.539 675.201 105.911 674.855 105.494C674.51 105.071 673.977 104.859 673.254 104.859C672.206 104.859 671.477 105.182 671.066 105.826C670.663 106.471 670.461 107.405 670.461 108.629V114H668.166V103.189H669.953L670.275 104.654H670.402C670.637 104.277 670.926 103.967 671.271 103.727C671.623 103.479 672.014 103.294 672.443 103.17C672.88 103.046 673.332 102.984 673.801 102.984ZM685.236 114.195C684.214 114.195 683.329 113.997 682.58 113.6C681.831 113.202 681.255 112.594 680.852 111.773C680.448 110.953 680.246 109.911 680.246 108.648C680.246 107.333 680.467 106.259 680.91 105.426C681.353 104.592 681.965 103.977 682.746 103.58C683.534 103.183 684.436 102.984 685.451 102.984C686.096 102.984 686.678 103.049 687.199 103.18C687.727 103.303 688.173 103.456 688.537 103.639L687.854 105.475C687.456 105.312 687.049 105.175 686.633 105.064C686.216 104.954 685.816 104.898 685.432 104.898C684.8 104.898 684.273 105.038 683.85 105.318C683.433 105.598 683.12 106.015 682.912 106.568C682.71 107.122 682.609 107.809 682.609 108.629C682.609 109.423 682.714 110.094 682.922 110.641C683.13 111.181 683.439 111.591 683.85 111.871C684.26 112.145 684.764 112.281 685.363 112.281C685.956 112.281 686.486 112.21 686.955 112.066C687.424 111.923 687.867 111.738 688.283 111.51V113.502C687.873 113.736 687.434 113.909 686.965 114.02C686.496 114.137 685.92 114.195 685.236 114.195ZM695.129 102.984C696.092 102.984 696.919 103.183 697.609 103.58C698.299 103.977 698.83 104.54 699.201 105.27C699.572 105.999 699.758 106.871 699.758 107.887V109.117H692.541C692.567 110.165 692.847 110.973 693.381 111.539C693.921 112.105 694.676 112.389 695.646 112.389C696.337 112.389 696.955 112.324 697.502 112.193C698.055 112.057 698.625 111.858 699.211 111.598V113.463C698.671 113.717 698.12 113.902 697.561 114.02C697.001 114.137 696.33 114.195 695.549 114.195C694.488 114.195 693.553 113.99 692.746 113.58C691.945 113.163 691.317 112.545 690.861 111.725C690.412 110.904 690.188 109.885 690.188 108.668C690.188 107.457 690.393 106.428 690.803 105.582C691.213 104.736 691.789 104.091 692.531 103.648C693.273 103.206 694.139 102.984 695.129 102.984ZM695.129 104.713C694.406 104.713 693.82 104.947 693.371 105.416C692.928 105.885 692.668 106.572 692.59 107.477H697.512C697.505 106.936 697.414 106.458 697.238 106.041C697.069 105.624 696.809 105.299 696.457 105.064C696.112 104.83 695.669 104.713 695.129 104.713ZM597.072 140H588.986V125.723H597.072V127.695H591.33V131.572H596.711V133.535H591.33V138.018H597.072V140ZM602.395 140L598.283 129.189H600.715L602.941 135.537C603.085 135.941 603.215 136.377 603.332 136.846C603.449 137.314 603.531 137.708 603.576 138.027H603.654C603.7 137.695 603.788 137.298 603.918 136.836C604.048 136.367 604.182 135.934 604.318 135.537L606.545 129.189H608.967L604.855 140H602.395ZM614.846 128.984C616.213 128.984 617.245 129.287 617.941 129.893C618.645 130.498 618.996 131.442 618.996 132.725V140H617.365L616.926 138.467H616.848C616.542 138.857 616.226 139.18 615.9 139.434C615.575 139.688 615.197 139.876 614.768 140C614.344 140.13 613.827 140.195 613.215 140.195C612.57 140.195 611.994 140.078 611.486 139.844C610.979 139.603 610.578 139.238 610.285 138.75C609.992 138.262 609.846 137.643 609.846 136.895C609.846 135.781 610.259 134.945 611.086 134.385C611.919 133.825 613.176 133.516 614.855 133.457L616.73 133.389V132.822C616.73 132.074 616.555 131.54 616.203 131.221C615.858 130.902 615.37 130.742 614.738 130.742C614.198 130.742 613.674 130.82 613.166 130.977C612.658 131.133 612.163 131.325 611.682 131.553L610.939 129.932C611.467 129.652 612.066 129.424 612.736 129.248C613.413 129.072 614.117 128.984 614.846 128.984ZM616.721 134.834L615.324 134.883C614.178 134.922 613.374 135.117 612.912 135.469C612.45 135.82 612.219 136.302 612.219 136.914C612.219 137.448 612.378 137.839 612.697 138.086C613.016 138.327 613.436 138.447 613.957 138.447C614.751 138.447 615.409 138.223 615.93 137.773C616.457 137.318 616.721 136.65 616.721 135.771V134.834ZM624.514 140H622.209V124.805H624.514V140ZM637.219 129.189V140H635.412L635.1 138.545H634.973C634.745 138.916 634.455 139.225 634.104 139.473C633.752 139.714 633.361 139.893 632.932 140.01C632.502 140.133 632.049 140.195 631.574 140.195C630.76 140.195 630.064 140.059 629.484 139.785C628.911 139.505 628.472 139.076 628.166 138.496C627.86 137.917 627.707 137.168 627.707 136.25V129.189H630.012V135.82C630.012 136.66 630.181 137.288 630.52 137.705C630.865 138.122 631.398 138.33 632.121 138.33C632.818 138.33 633.371 138.187 633.781 137.9C634.191 137.614 634.481 137.191 634.65 136.631C634.826 136.071 634.914 135.384 634.914 134.57V129.189H637.219ZM644.748 128.984C646.115 128.984 647.147 129.287 647.844 129.893C648.547 130.498 648.898 131.442 648.898 132.725V140H647.268L646.828 138.467H646.75C646.444 138.857 646.128 139.18 645.803 139.434C645.477 139.688 645.1 139.876 644.67 140C644.247 140.13 643.729 140.195 643.117 140.195C642.473 140.195 641.896 140.078 641.389 139.844C640.881 139.603 640.48 139.238 640.188 138.75C639.895 138.262 639.748 137.643 639.748 136.895C639.748 135.781 640.161 134.945 640.988 134.385C641.822 133.825 643.078 133.516 644.758 133.457L646.633 133.389V132.822C646.633 132.074 646.457 131.54 646.105 131.221C645.76 130.902 645.272 130.742 644.641 130.742C644.1 130.742 643.576 130.82 643.068 130.977C642.561 131.133 642.066 131.325 641.584 131.553L640.842 129.932C641.369 129.652 641.968 129.424 642.639 129.248C643.316 129.072 644.019 128.984 644.748 128.984ZM646.623 134.834L645.227 134.883C644.081 134.922 643.277 135.117 642.814 135.469C642.352 135.82 642.121 136.302 642.121 136.914C642.121 137.448 642.281 137.839 642.6 138.086C642.919 138.327 643.339 138.447 643.859 138.447C644.654 138.447 645.311 138.223 645.832 137.773C646.359 137.318 646.623 136.65 646.623 135.771V134.834ZM656.135 138.34C656.434 138.34 656.73 138.314 657.023 138.262C657.316 138.203 657.583 138.135 657.824 138.057V139.795C657.57 139.906 657.242 140 656.838 140.078C656.434 140.156 656.014 140.195 655.578 140.195C654.966 140.195 654.416 140.094 653.928 139.893C653.439 139.684 653.052 139.329 652.766 138.828C652.479 138.327 652.336 137.633 652.336 136.748V130.938H650.861V129.912L652.443 129.102L653.195 126.787H654.641V129.189H657.736V130.938H654.641V136.719C654.641 137.266 654.777 137.673 655.051 137.939C655.324 138.206 655.686 138.34 656.135 138.34ZM662.316 129.189V140H660.021V129.189H662.316ZM661.184 125.049C661.535 125.049 661.838 125.143 662.092 125.332C662.352 125.521 662.482 125.846 662.482 126.309C662.482 126.764 662.352 127.09 662.092 127.285C661.838 127.474 661.535 127.568 661.184 127.568C660.819 127.568 660.51 127.474 660.256 127.285C660.008 127.09 659.885 126.764 659.885 126.309C659.885 125.846 660.008 125.521 660.256 125.332C660.51 125.143 660.819 125.049 661.184 125.049ZM675.178 134.57C675.178 135.469 675.061 136.266 674.826 136.963C674.592 137.66 674.25 138.249 673.801 138.73C673.352 139.206 672.811 139.57 672.18 139.824C671.548 140.072 670.835 140.195 670.041 140.195C669.299 140.195 668.618 140.072 668 139.824C667.382 139.57 666.844 139.206 666.389 138.73C665.939 138.249 665.591 137.66 665.344 136.963C665.096 136.266 664.973 135.469 664.973 134.57C664.973 133.379 665.178 132.37 665.588 131.543C666.005 130.71 666.597 130.075 667.365 129.639C668.133 129.202 669.048 128.984 670.109 128.984C671.105 128.984 671.984 129.202 672.746 129.639C673.508 130.075 674.104 130.71 674.533 131.543C674.963 132.376 675.178 133.385 675.178 134.57ZM667.336 134.57C667.336 135.358 667.43 136.032 667.619 136.592C667.814 137.152 668.114 137.581 668.518 137.881C668.921 138.174 669.442 138.32 670.08 138.32C670.718 138.32 671.239 138.174 671.643 137.881C672.046 137.581 672.342 137.152 672.531 136.592C672.72 136.032 672.814 135.358 672.814 134.57C672.814 133.783 672.72 133.115 672.531 132.568C672.342 132.015 672.046 131.595 671.643 131.309C671.239 131.016 670.715 130.869 670.07 130.869C669.12 130.869 668.426 131.188 667.99 131.826C667.554 132.464 667.336 133.379 667.336 134.57ZM683.449 128.984C684.667 128.984 685.614 129.3 686.291 129.932C686.975 130.557 687.316 131.562 687.316 132.949V140H685.021V133.379C685.021 132.539 684.849 131.911 684.504 131.494C684.159 131.071 683.625 130.859 682.902 130.859C681.854 130.859 681.125 131.182 680.715 131.826C680.311 132.471 680.109 133.405 680.109 134.629V140H677.814V129.189H679.602L679.924 130.654H680.051C680.285 130.277 680.575 129.967 680.92 129.727C681.271 129.479 681.662 129.294 682.092 129.17C682.528 129.046 682.98 128.984 683.449 128.984Z" fill="#DD3636"/>
<defs>
<linearGradient id="paint0_linear_419_2832" x1="-0.00116189" y1="120.007" x2="487.595" y2="120.007" gradientUnits="userSpaceOnUse">
<stop offset="0.26" stop-color="#9364D4"/>
<stop offset="0.7" stop-color="#5DD8D3"/>
</linearGradient>
<linearGradient id="paint1_linear_419_2832" x1="-0.00269929" y1="32.3792" x2="487.593" y2="32.3792" gradientUnits="userSpaceOnUse">
<stop offset="0.40625" stop-color="#9364D4"/>
<stop offset="0.7" stop-color="#16CABD"/>
</linearGradient>
<linearGradient id="paint2_linear_419_2832" x1="-0.00143207" y1="65.1622" x2="487.594" y2="65.1622" gradientUnits="userSpaceOnUse">
<stop offset="0.26" stop-color="#7B3DD9"/>
<stop offset="0.38" stop-color="#6260D2"/>
<stop offset="0.64" stop-color="#24B7C1"/>
<stop offset="0.7" stop-color="#16CABD"/>
</linearGradient>
<linearGradient id="paint3_linear_419_2832" x1="264.029" y1="120.007" x2="754.849" y2="120.007" gradientUnits="userSpaceOnUse">
<stop offset="0.36" stop-color="#5DD8D3"/>
<stop offset="0.78" stop-color="#F94F4F"/>
</linearGradient>
<linearGradient id="paint4_linear_419_2832" x1="264.028" y1="167.135" x2="754.848" y2="167.135" gradientUnits="userSpaceOnUse">
<stop offset="0.36" stop-color="#16CABD"/>
<stop offset="0.55" stop-color="#84848B"/>
<stop offset="0.71" stop-color="#DC4C64"/>
<stop offset="0.78" stop-color="#FF3654"/>
</linearGradient>
<linearGradient id="paint5_linear_419_2832" x1="264.029" y1="207.636" x2="754.848" y2="207.636" gradientUnits="userSpaceOnUse">
<stop offset="0.36" stop-color="#16CABD"/>
<stop offset="0.55" stop-color="#84848B"/>
<stop offset="0.71" stop-color="#DC4C64"/>
<stop offset="0.78" stop-color="#FF3654"/>
</linearGradient>
</defs>
</svg>
