<svg xmlns="http://www.w3.org/2000/svg" xmlns:xlink="http://www.w3.org/1999/xlink" version="1.1" width="256" height="256" viewBox="0 0 256 256" xml:space="preserve">

<defs>
</defs>
<g style="stroke: none; stroke-width: 0; stroke-dasharray: none; stroke-linecap: butt; stroke-linejoin: miter; stroke-miterlimit: 10; fill: none; fill-rule: nonzero; opacity: 1;" transform="translate(1.4065934065934016 1.4065934065934016) scale(2.81 2.81)" >
	<path d="M 56.266 54.016 L 77.952 34.12 c 0.61 -0.56 0.651 -1.509 0.092 -2.12 c -0.56 -0.609 -1.508 -0.65 -2.119 -0.091 L 45 60.28 L 14.076 31.909 c -0.61 -0.56 -1.559 -0.518 -2.12 0.091 c -0.56 0.61 -0.519 1.56 0.091 2.12 l 21.687 19.896 L 12.047 73.911 c -0.61 0.561 -0.651 1.509 -0.091 2.119 c 0.296 0.323 0.7 0.486 1.106 0.486 c 0.362 0 0.726 -0.131 1.014 -0.395 l 21.878 -20.07 l 8.033 7.369 c 0.287 0.263 0.65 0.395 1.014 0.395 s 0.727 -0.132 1.014 -0.395 l 8.033 -7.37 l 21.878 20.071 c 0.288 0.264 0.651 0.395 1.014 0.395 c 0.405 0 0.81 -0.163 1.105 -0.486 c 0.56 -0.61 0.519 -1.559 -0.092 -2.119 L 56.266 54.016 z" style="stroke: none; stroke-width: 1; stroke-dasharray: none; stroke-linecap: butt; stroke-linejoin: miter; stroke-miterlimit: 10; fill: rgb(213,75,61); fill-rule: nonzero; opacity: 1;" transform=" matrix(1 0 0 1 0 0) " stroke-linecap="round" />
	<path d="M 82.421 87.124 H 7.579 C 3.4 87.124 0 83.724 0 79.545 V 28.487 c 0 -4.179 3.4 -7.579 7.579 -7.579 h 24.873 c 0.829 0 1.5 0.671 1.5 1.5 s -0.671 1.5 -1.5 1.5 H 7.579 C 5.054 23.908 3 25.962 3 28.487 v 51.058 c 0 2.525 2.054 4.579 4.579 4.579 h 74.842 c 2.525 0 4.579 -2.054 4.579 -4.579 V 28.487 c 0 -2.525 -2.054 -4.579 -4.579 -4.579 H 57.548 c -0.828 0 -1.5 -0.671 -1.5 -1.5 s 0.672 -1.5 1.5 -1.5 h 24.873 c 4.179 0 7.579 3.4 7.579 7.579 v 51.058 C 90 83.724 86.6 87.124 82.421 87.124 z" style="stroke: none; stroke-width: 1; stroke-dasharray: none; stroke-linecap: butt; stroke-linejoin: miter; stroke-miterlimit: 10; fill: rgb(213,75,61); fill-rule: nonzero; opacity: 1;" transform=" matrix(1 0 0 1 0 0) " stroke-linecap="round" />
	<path d="M 55.045 30.922 l -9.047 8.066 c -0.01 0.009 -0.023 0.011 -0.033 0.02 c -0.126 0.107 -0.267 0.195 -0.423 0.256 c -0.017 0.007 -0.035 0.01 -0.052 0.016 c -0.154 0.054 -0.317 0.089 -0.49 0.089 s -0.336 -0.035 -0.49 -0.089 c -0.018 -0.006 -0.035 -0.009 -0.052 -0.016 c -0.156 -0.061 -0.297 -0.149 -0.423 -0.256 c -0.01 -0.008 -0.023 -0.011 -0.033 -0.02 l -9.046 -8.066 c -0.619 -0.551 -0.673 -1.5 -0.122 -2.118 c 0.296 -0.333 0.708 -0.502 1.12 -0.502 c 0.355 0 0.712 0.125 0.998 0.38 l 6.548 5.838 V 4.376 c 0 -0.829 0.671 -1.5 1.5 -1.5 s 1.5 0.671 1.5 1.5 v 30.145 l 6.549 -5.839 c 0.619 -0.551 1.567 -0.496 2.117 0.122 C 55.718 29.422 55.663 30.371 55.045 30.922 z" style="stroke: none; stroke-width: 1; stroke-dasharray: none; stroke-linecap: butt; stroke-linejoin: miter; stroke-miterlimit: 10; fill: rgb(91,91,91); fill-rule: nonzero; opacity: 1;" transform=" matrix(1 0 0 1 0 0) " stroke-linecap="round" />
</g>
</svg>