<svg viewBox="0 0 24 16" fill="none" xmlns="http://www.w3.org/2000/svg">
<g clip-path="url(#clip0_286_11390)">
<path d="M0 2C0 0.895431 0.895431 0 2 0H22C23.1046 0 24 0.895431 24 2V14C24 15.1046 23.1046 16 22 16H2C0.89543 16 0 15.1046 0 14V2Z" fill="#FDEACE"/>
<path d="M14.5044 3.26398L9.33984 3.28174L9.49634 12.7367L14.6609 12.7189L14.5044 3.26398Z" fill="#FF5F00"/>
<path d="M9.6798 8.02808C9.64784 6.10503 10.5093 4.39632 11.8586 3.28797C10.8401 2.48875 9.56328 2.00815 8.17913 2.01289C4.90002 2.02412 2.29181 4.72548 2.34711 8.0532C2.40241 11.3809 5.1001 14.0641 8.37922 14.0529C9.76336 14.0481 11.0241 13.5588 12.0159 12.7527C10.6302 11.6705 9.71176 9.95114 9.6798 8.02808Z" fill="#EB001B"/>
<path d="M21.6531 7.94711C21.7084 11.2748 19.1002 13.9762 15.8211 13.9874C14.4369 13.9922 13.1601 13.5116 12.1416 12.7123C13.5074 11.6039 14.3524 9.89528 14.3204 7.97222C14.2885 6.04917 13.3703 4.34655 11.9843 3.24757C12.9761 2.44146 14.2369 1.95217 15.621 1.94743C18.9001 1.9362 21.5981 4.63611 21.6531 7.94711Z" fill="#F79E1B"/>
</g>
<defs>
<clipPath id="clip0_286_11390">
<rect width="24" height="16" fill="white"/>
</clipPath>
</defs>
</svg>
