<svg viewBox="0 0 24 16" fill="none" xmlns="http://www.w3.org/2000/svg">
<g clip-path="url(#clip0_286_11255)">
<path d="M0 2C0 0.895431 0.895431 0 2 0H22C23.1046 0 24 0.895431 24 2V14C24 15.1046 23.1046 16 22 16H2C0.89543 16 0 15.1046 0 14V2Z" fill="#D8E3F3"/>
<path d="M20.6553 5.01758H19.398C19.0178 5.01758 18.7254 5.13454 18.55 5.51465L16.1523 10.9825H17.8482C17.8482 10.9825 18.1406 10.2515 18.1991 10.0761C18.3746 10.0761 20.0412 10.0761 20.2752 10.0761C20.3336 10.2807 20.4798 10.9533 20.4798 10.9533H22.0003L20.6553 5.01758ZM18.667 8.84799C18.8132 8.49711 19.3102 7.18132 19.3102 7.18132C19.3102 7.21056 19.4564 6.83044 19.5149 6.62577L19.6319 7.15208C19.6319 7.15208 19.9535 8.58483 20.012 8.87723H18.667V8.84799Z" fill="#3362AB"/>
<path d="M16.2692 9.02325C16.2692 10.2513 15.1581 11.07 13.433 11.07C12.702 11.07 12.0002 10.9238 11.6201 10.7484L11.854 9.40337L12.0587 9.49109C12.585 9.72501 12.9359 9.81273 13.5792 9.81273C14.047 9.81273 14.5441 9.63729 14.5441 9.22793C14.5441 8.96478 14.3394 8.78934 13.6961 8.49694C13.0821 8.20454 12.2634 7.73671 12.2634 6.88875C12.2634 5.71916 13.4037 4.92969 15.0119 4.92969C15.626 4.92969 16.1523 5.04665 16.4739 5.19285L16.24 6.4794L16.123 6.36244C15.8306 6.24548 15.4505 6.12852 14.895 6.12852C14.2809 6.15776 13.9885 6.42092 13.9885 6.65483C13.9885 6.91799 14.3394 7.12267 14.895 7.38583C15.8306 7.82442 16.2692 8.3215 16.2692 9.02325Z" fill="#3362AB"/>
<path d="M2 5.07594L2.02924 4.95898H4.54386C4.89474 4.95898 5.15789 5.07594 5.24561 5.45606L5.80117 8.08764C5.24561 6.68413 3.95906 5.54378 2 5.07594Z" fill="#F9B50B"/>
<path d="M9.33939 5.01752L6.79553 10.9532H5.07039L3.6084 5.98243C4.66103 6.65495 5.53822 7.70758 5.85986 8.43857L6.0353 9.05261L7.61425 4.98828H9.33939V5.01752Z" fill="#3362AB"/>
<path d="M10.0117 4.98828H11.6199L10.5965 10.9532H8.98828L10.0117 4.98828Z" fill="#3362AB"/>
</g>
<defs>
<clipPath id="clip0_286_11255">
<rect width="24" height="16" fill="white"/>
</clipPath>
</defs>
</svg>
